<svg width="142" height="150" viewBox="0 0 142 150" fill="none" xmlns="http://www.w3.org/2000/svg">
<path d="M88.4629 0.497363L0.677289 37.4455L30.9428 138.981C31.557 141.039 32.5913 142.948 33.9782 144.584C35.3651 146.22 37.0735 147.546 38.9919 148.476C40.9104 149.405 42.9959 149.918 45.1124 149.979C47.229 150.041 49.3291 149.65 51.2757 148.833L72.6007 139.857C75.7524 138.532 78.3499 136.153 79.9641 133.112C81.5784 130.072 82.1129 126.552 81.4794 123.134L67.1378 72.5806L93.2566 118.177C95.257 121.018 98.1463 123.096 101.448 124.067C104.749 125.039 108.265 124.846 111.415 123.521L132.74 114.545C134.687 113.726 136.436 112.498 137.874 110.942C139.312 109.385 140.405 107.535 141.083 105.513C141.76 103.49 142.007 101.341 141.807 99.2039C141.607 97.0672 140.965 94.9917 139.922 93.1127L88.4629 0.497363Z" fill="#000584"/>
</svg>
