<svg width="101" height="102" viewBox="0 0 101 102" fill="none" xmlns="http://www.w3.org/2000/svg">
<path d="M90.5571 1.85978C91.0694 2.41924 91.2524 3.24381 91.2134 3.98662L90.0257 27.7817C89.9966 28.6924 89.3539 29.5315 88.6449 29.9157C88.443 30.0252 87.8532 30.2871 87.5968 30.3395L77.5893 32.704L100.567 75.0967C101.269 76.3908 100.948 77.7767 99.7567 78.4227L57.3406 101.413C56.1489 102.059 54.8129 101.571 54.1115 100.277L31.1335 57.8841L24.5907 64.5193C23.8511 65.3243 22.8457 65.3497 21.869 64.7532L1.38813 52.7608C0.730327 52.3668 0.278621 51.7745 0.08949 51.0398C-0.131932 50.2938 0.0503551 49.6177 0.426394 49.0097L16.2222 25.5526L26.3213 20.0787C27.513 19.4327 28.837 19.8987 29.5505 21.2151C32.0418 25.8113 39.6447 25.9049 43.8055 23.6497C47.9664 21.3944 52.252 14.8857 49.7486 10.2672C49.0472 8.97307 49.3674 7.5871 50.5591 6.94117L60.6582 1.46722L88.5915 0.933341C89.3264 0.939167 90.0327 1.27801 90.5571 1.85978Z" fill="#000584"/>
</svg>
