<svg width="25" height="20" viewBox="0 0 25 20" fill="none" xmlns="http://www.w3.org/2000/svg">
<path fill-rule="evenodd" clip-rule="evenodd" d="M21.5348 1.29627C20.6621 0.457196 19.4961 -0.00789301 18.2854 0.00010138H8.06506C7.88824 0.000101377 7.71315 0.034928 7.5498 0.102593C7.38644 0.170258 7.23801 0.269436 7.11298 0.394465C6.98795 0.519493 6.88877 0.667924 6.82111 0.831282C6.75344 0.994639 6.71862 1.16972 6.71862 1.34654C6.71862 1.52336 6.75344 1.69844 6.82111 1.8618C6.88877 2.02516 6.98795 2.17359 7.11298 2.29862C7.23801 2.42365 7.38644 2.52283 7.5498 2.59049C7.71315 2.65816 7.88824 2.69298 8.06506 2.69298H18.3124C18.8259 2.69124 19.3192 2.89333 19.6839 3.2549C20.0968 3.64447 20.4002 4.21715 20.499 4.88319L20.6606 6.00164H15.8206C12.3355 6.00496 8.9397 7.10358 6.11312 9.14217C3.28654 11.1808 1.1722 14.0562 0.0689939 17.362C0.0016598 17.5642 -0.0167323 17.7794 0.0153296 17.9901C0.0473914 18.2007 0.128992 18.4008 0.253422 18.5737C0.377852 18.7467 0.54156 18.8877 0.731086 18.9851C0.920611 19.0825 1.13054 19.1335 1.34362 19.1339H21.9101C22.5829 19.1346 23.2375 18.9153 23.7741 18.5096C24.3108 18.1038 24.7002 17.5338 24.883 16.8863C25.0051 16.4554 25.032 16.0012 24.962 15.5578V15.547L23.5527 7.13983L23.1667 4.49183C22.9963 3.27424 22.4223 2.14904 21.5366 1.29627H21.5348Z" fill="white"/>
</svg>
