<svg width="25" height="29" viewBox="0 0 25 29" fill="none" xmlns="http://www.w3.org/2000/svg">
<path d="M22.8693 2.27273H19.794L17.8494 0.332387C17.7438 0.226893 17.6185 0.143241 17.4805 0.086209C17.3426 0.0291771 17.1947 -0.000117029 17.0455 3.51362e-07H7.95455C7.80527 -0.000117029 7.65744 0.0291771 7.51949 0.086209C7.38154 0.143241 7.25618 0.226893 7.15057 0.332387L5.20597 2.27273H2.13068C1.56559 2.27273 1.02364 2.49721 0.624062 2.89679C0.224482 3.29637 0 3.83832 0 4.40341V26.2784C0 26.8435 0.224482 27.3854 0.624062 27.785C1.02364 28.1846 1.56559 28.4091 2.13068 28.4091H10.7955C10.9461 28.4091 11.0907 28.3492 11.1972 28.2427C11.3038 28.1361 11.3636 27.9916 11.3636 27.8409V11.402C11.3593 11.1083 11.4663 10.8239 11.6632 10.606C11.86 10.388 12.1321 10.2527 12.4247 10.2273C12.5802 10.217 12.7361 10.2387 12.8827 10.2912C13.0294 10.3436 13.1637 10.4257 13.2774 10.5323C13.391 10.6388 13.4815 10.7676 13.5433 10.9106C13.605 11.0537 13.6367 11.2079 13.6364 11.3636V27.8409C13.6364 27.9916 13.6962 28.1361 13.8028 28.2427C13.9093 28.3492 14.0539 28.4091 14.2045 28.4091H22.8693C23.4344 28.4091 23.9764 28.1846 24.3759 27.785C24.7755 27.3854 25 26.8435 25 26.2784V4.40341C25 3.83832 24.7755 3.29637 24.3759 2.89679C23.9764 2.49721 23.4344 2.27273 22.8693 2.27273ZM6.6108 11.8011C6.52772 11.8694 6.42696 11.9127 6.32024 11.926C6.21352 11.9393 6.10521 11.9221 6.00792 11.8762C5.91062 11.8304 5.82833 11.7579 5.7706 11.6672C5.71287 11.5764 5.68209 11.4712 5.68182 11.3636V5.01563L7.84659 2.85085L11.1804 7.85227L6.6108 11.8011ZM19.3182 11.3636C19.3184 11.4718 19.2878 11.5777 19.23 11.669C19.1721 11.7604 19.0894 11.8333 18.9915 11.8793C18.8953 11.9256 18.7879 11.9435 18.6819 11.9306C18.5759 11.9178 18.4758 11.8748 18.3935 11.8068L13.8196 7.85511L17.1534 2.85369L19.3182 5.01563V11.3636Z" fill="white"/>
</svg>
