<svg width="25" height="25" viewBox="0 0 25 25" fill="none" xmlns="http://www.w3.org/2000/svg">
<path d="M17.7083 22.4034C16.5556 22.4034 15.625 21.2368 15.625 19.7923C15.625 18.3618 16.5556 17.1951 17.7083 17.1951C18.8611 17.1951 19.7917 18.3618 19.7917 19.7923C19.7917 21.2368 18.8611 22.4034 17.7083 22.4034ZM12.5 11.459C10.7778 11.459 9.37501 10.2923 9.37501 8.86177C9.37501 7.41733 10.7778 6.25066 12.5 6.25066C14.2222 6.25066 15.625 7.41733 15.625 8.86177C15.625 10.2923 14.2222 11.459 12.5 11.459ZM7.29168 22.4034C6.1389 22.4034 5.20835 21.2368 5.20835 19.7923C5.20835 18.3618 6.1389 17.1951 7.29168 17.1951C8.44446 17.1951 9.37501 18.3618 9.37501 19.7923C9.37501 21.2368 8.44446 22.4034 7.29168 22.4034ZM12.5 7.29233C13.0695 7.29233 13.5417 7.76455 13.5417 8.33399C13.5417 8.90344 13.0695 9.37566 12.5 9.37566C11.9306 9.37566 11.4583 8.90344 11.4583 8.33399C11.4583 7.76455 11.9306 7.29233 12.5 7.29233ZM21.875 12.5007C21.4306 12.5007 21 12.5979 20.6111 12.7784C19.9444 11.9312 19.0417 11.209 17.9583 10.6534C18.75 9.54233 19.2222 8.19511 19.2222 6.73677V6.65344C20.7361 6.334 21.875 4.98677 21.875 3.36178C21.875 1.51456 20.3611 0.00066724 18.5139 0.00066724C17.5556 0.00066724 16.6667 0.403445 16.0833 1.04233C15.0122 0.361553 13.7692 0 12.5 0C11.2308 0 9.98786 0.361553 8.91668 1.04233C8.33335 0.403445 7.44446 0.00066724 6.48612 0.00066724C4.6389 0.00066724 3.12502 1.51456 3.12502 3.36178C3.12502 4.97289 4.2639 6.32011 5.7639 6.65344V6.73677C5.7639 8.19511 6.25001 9.55622 7.02779 10.6534C5.95835 11.209 5.05557 11.9312 4.3889 12.7784C3.91427 12.5646 3.39358 12.4733 2.87452 12.5129C2.35546 12.5525 1.85463 12.7217 1.41791 13.005C0.981197 13.2883 0.622551 13.6767 0.374831 14.1346C0.127112 14.5924 -0.00176066 15.1051 1.81678e-05 15.6257C1.81678e-05 17.3618 1.38891 18.7507 3.12502 18.7507H3.20835C3.15279 19.084 3.12502 19.4451 3.12502 19.7923C3.12502 22.6673 4.98613 25.0006 7.29168 25.0006C8.69446 25.0006 9.93057 24.1257 10.6945 22.7923C11.2778 22.8757 11.875 22.9173 12.5 22.9173C13.125 22.9173 13.7222 22.8757 14.3056 22.7923C15.0695 24.1257 16.3056 25.0006 17.7083 25.0006C20.0139 25.0006 21.875 22.6673 21.875 19.7923C21.875 19.4451 21.8472 19.084 21.7917 18.7507H21.875C23.6111 18.7507 25 17.3618 25 15.6257C25 13.8895 23.6111 12.5007 21.875 12.5007Z" fill="white"/>
</svg>
