<svg width="200" height="189" viewBox="0 0 200 189" fill="none" xmlns="http://www.w3.org/2000/svg">
<path d="M28.2176 169.13C65.8433 195.147 126.847 195.147 164.473 169.13C202.098 143.113 202.094 100.937 164.473 74.92C126.851 48.903 65.8433 48.903 28.2176 74.92C-9.40796 100.937 -9.4038 143.118 28.2176 169.13Z" fill="#F5F5F5"/>
<path d="M198.684 27.7339L195.693 29.424C195.702 29.2927 195.702 29.161 195.693 29.0296V28.1733C195.693 26.6523 194.611 26.0326 193.278 26.7987C192.703 27.1453 192.211 27.6126 191.837 28.1677C191.621 26.2523 190.129 25.5368 188.255 26.5903C187.202 27.2687 186.326 28.1837 185.698 29.2606C185.07 30.3376 184.709 31.546 184.644 32.7873V34.0661C184.629 34.5781 184.732 35.0866 184.945 35.5534L182.468 36.9674C182.077 37.2194 181.752 37.5588 181.518 37.9581C181.285 38.3574 181.15 38.8054 181.124 39.2659C181.124 40.111 181.727 40.4546 182.468 40.0321L198.661 30.7817C199.051 30.5306 199.375 30.1921 199.608 29.7937C199.84 29.3953 199.974 28.9482 199.999 28.4888C200.022 27.655 199.424 27.3114 198.684 27.7339Z" fill="#EBEBEB"/>
<path d="M177.433 8.23016C177.402 6.7382 177.015 5.27467 176.304 3.95821C175.594 2.64174 174.579 1.50939 173.344 0.652939C172.205 -0.0625315 171.111 -0.169569 170.314 0.236052C165.501 2.62471 131.679 24.0719 129.52 25.131H129.492C129.264 25.2804 129.081 25.4869 128.961 25.7295C128.841 25.9721 128.788 26.2419 128.808 26.5113C128.822 27.2633 129.015 28.0016 129.372 28.6655C129.73 29.3295 130.241 29.9002 130.865 30.3309C131.08 30.4975 131.337 30.6041 131.609 30.6398C131.88 30.6754 132.156 30.6388 132.408 30.5337H132.442C135.86 28.669 169.243 14.5962 176.066 10.9794C176.87 10.54 177.388 9.5935 177.433 8.23016Z" fill="#0007B0"/>
<path opacity="0.1" d="M176.106 3.60532C175.436 2.41729 174.489 1.40507 173.343 0.6533C172.204 -0.062171 171.122 -0.16921 170.325 0.230778L170.222 0.287113C165.831 2.50676 140.661 18.388 132.191 23.554L132.134 23.5878L131.792 23.7962L131.69 23.8582L131.496 23.9765L131.268 24.1117C130.374 24.6751 129.77 25.0018 129.56 25.1201H129.531C129.459 25.1626 129.392 25.2137 129.332 25.2722C129.172 25.4344 129.047 25.6267 128.964 25.8377C128.881 26.0487 128.841 26.274 128.848 26.5004C128.837 26.6598 128.837 26.8198 128.848 26.9792C128.848 27.0412 128.848 27.1032 128.876 27.1651C128.905 27.2271 128.91 27.3567 128.933 27.4581C128.956 27.5595 128.973 27.6158 128.996 27.6891C129.019 27.7623 129.053 27.875 129.087 27.9651C129.121 28.0553 129.138 28.1003 129.161 28.1679V28.2017L176.106 3.60532Z" fill="black"/>
<path d="M130.859 30.3364C130.238 29.9067 129.729 29.3386 129.372 28.6779C129.015 28.0173 128.82 27.2827 128.803 26.5337C128.854 25.1591 129.845 24.6296 131.024 25.3563C131.645 25.7866 132.155 26.3556 132.513 27.0173C132.87 27.679 133.064 28.4147 133.08 29.1646C133.035 30.5392 132.038 31.0744 130.859 30.3364Z" fill="#0007B0"/>
<path d="M120.748 31.261C120.762 31.8364 120.912 32.4008 121.186 32.9086C121.46 33.4164 121.85 33.8535 122.326 34.1848C122.491 34.3112 122.688 34.3919 122.895 34.4187C123.102 34.4454 123.313 34.4172 123.505 34.3369L131.684 30.0272C131.858 29.9131 131.998 29.7555 132.09 29.5705C132.182 29.3854 132.223 29.1795 132.208 28.9737C132.196 28.3981 132.047 27.8334 131.772 27.3255C131.498 26.8175 131.107 26.3805 130.631 26.0499C130.466 25.922 130.27 25.84 130.063 25.8122C129.856 25.7845 129.645 25.8121 129.452 25.8921L121.272 30.2019C121.098 30.3164 120.957 30.4749 120.865 30.6611C120.773 30.8472 120.733 31.0543 120.748 31.261Z" fill="#37474F"/>
<path d="M121.284 30.2019C121.107 30.315 120.964 30.473 120.87 30.6592C120.776 30.8454 120.734 31.0532 120.748 31.261C120.745 31.6885 120.831 32.1122 120.999 32.506L131.548 26.94C131.309 26.5867 131.001 26.2841 130.642 26.0499C130.478 25.922 130.281 25.84 130.074 25.8122C129.867 25.7845 129.656 25.8121 129.463 25.8921L121.284 30.2019Z" fill="#263238"/>
<path d="M131.246 38.4378C131.246 33.2548 127.783 28.0719 120.851 24.1171C106.999 16.2019 84.5346 16.2019 70.6767 24.1171C63.7506 28.0606 60.2876 33.2548 60.2876 38.4378V48.0149C60.2876 53.1979 63.7506 58.3808 70.6824 62.3412C84.5346 70.2283 106.999 70.2283 120.851 62.3412C127.783 58.3977 131.246 53.1979 131.246 48.0149V38.4378ZM72.3798 27.0522C78.5654 23.5199 86.8642 21.5763 95.7326 21.5763C104.601 21.5763 112.917 23.5199 119.085 27.0522C124.679 30.2465 127.76 34.2914 127.76 38.4434C127.76 42.5954 124.679 46.6347 119.085 49.829C112.9 53.3612 104.601 55.3048 95.7326 55.3048C86.8642 55.3048 78.5483 53.3612 72.3798 49.829C66.7808 46.6347 63.7051 42.5898 63.7051 38.4434C63.7051 34.2971 66.7979 30.2465 72.3798 27.0522Z" fill="#0007B0"/>
<path opacity="0.3" d="M70.6709 52.7639C84.5288 60.6792 106.987 60.6792 120.845 52.7639C134.703 44.8487 134.703 32.0266 120.845 24.1169C106.987 16.2073 84.5288 16.2017 70.6709 24.1169C56.813 32.0322 56.8244 44.8543 70.6709 52.7639ZM63.7106 38.4433C63.7106 34.2913 66.792 30.2463 72.3853 27.0521C78.5766 23.5198 86.8754 21.5762 95.7381 21.5762C104.601 21.5762 112.922 23.5198 119.091 27.0521C124.684 30.2463 127.766 34.2913 127.766 38.4433C127.766 42.5952 124.684 46.6345 119.091 49.8288C112.9 53.3611 104.601 55.3047 95.7381 55.3047C86.8754 55.3047 78.5539 53.3611 72.3853 49.8288C66.7977 46.6345 63.7163 42.5896 63.7163 38.4433H63.7106Z" fill="white"/>
<path d="M63.7163 38.4376C63.7365 40.1257 64.2145 41.7775 65.1004 43.2206C66.5073 40.8094 68.9849 38.5503 72.3967 36.6067C78.5767 33.0688 86.8811 31.1252 95.7495 31.1252C104.618 31.1252 112.934 33.0688 119.102 36.6067C122.52 38.5503 124.992 40.8094 126.404 43.2206C127.286 41.776 127.762 40.1248 127.783 38.4376C127.783 34.2913 124.701 30.2463 119.102 27.0521C112.922 23.5198 104.618 21.5762 95.7495 21.5762C86.8811 21.5762 78.5596 23.5198 72.3967 27.0521C66.7977 30.2463 63.7163 34.2913 63.7163 38.4376Z" fill="#0007B0"/>
<path opacity="0.1" d="M63.7163 38.4376C63.7365 40.1257 64.2145 41.7775 65.1004 43.2206C66.5073 40.8094 68.9849 38.5503 72.3967 36.6067C78.5767 33.0688 86.8811 31.1252 95.7495 31.1252C104.618 31.1252 112.934 33.0688 119.102 36.6067C122.52 38.5503 124.992 40.8094 126.404 43.2206C127.286 41.776 127.762 40.1248 127.783 38.4376C127.783 34.2913 124.701 30.2463 119.102 27.0521C112.922 23.5198 104.618 21.5762 95.7495 21.5762C86.8811 21.5762 78.5596 23.5198 72.3967 27.0521C66.7977 30.2463 63.7163 34.2913 63.7163 38.4376Z" fill="black"/>
<path opacity="0.4" d="M72.3797 31.379C78.571 27.8467 86.8698 25.8975 95.7324 25.8975C104.595 25.8975 112.917 27.8467 119.085 31.379C123.699 34.0155 126.598 37.2267 127.475 40.6012C126.598 43.9814 123.699 47.1926 119.085 49.8291C112.894 53.3614 104.595 55.305 95.7324 55.305C86.8698 55.305 78.5482 53.3614 72.3797 49.8291C67.7661 47.1926 64.8669 43.9758 63.9897 40.6012C64.8783 37.2267 67.7775 34.0155 72.3797 31.379Z" fill="white"/>
<path opacity="0.1" d="M87.4055 58.1158V67.6929C81.2768 66.8479 75.4443 65.062 70.6826 62.3297C63.7508 58.3862 60.2878 53.1863 60.2878 47.9978V38.4206C60.2902 37.3647 60.4319 36.3136 60.7092 35.2939C59.0005 41.4628 62.3496 47.9921 70.6712 52.7582C75.4671 55.5018 81.2768 57.2876 87.4055 58.1158Z" fill="black"/>
<path d="M58.1403 169.928C82.655 182.593 122.383 182.593 146.892 169.928C171.401 157.262 171.407 136.735 146.892 124.069C122.377 111.404 82.6492 111.407 58.1403 124.069C33.6315 136.732 33.6343 157.265 58.1403 169.928Z" fill="#F5F5F5"/>
<path d="M50.8704 149.737H51.9029C52.3761 148.174 52.6863 146.567 52.8286 144.942C53.0536 141.932 51.5798 137.325 48.8803 135.782C46.1809 134.239 44.7186 136.147 45.6242 137.779C46.5298 139.411 49.5841 144.052 49.6244 148.045L50.8704 149.737Z" fill="#39B7EB"/>
<path d="M50.6227 149.737H50.9111C51.1929 147.766 51.1929 145.766 50.9111 143.795C50.4439 139.889 49.1461 138.075 47.9405 136.814C47.9142 136.787 47.8778 136.771 47.8394 136.77C47.801 136.769 47.7637 136.783 47.7358 136.809C47.7079 136.835 47.6916 136.871 47.6905 136.909C47.6894 136.947 47.7036 136.984 47.73 137.011C48.9038 138.235 50.1671 140.004 50.6141 143.826C50.8998 145.786 50.9027 147.776 50.6227 149.737Z" fill="white"/>
<path d="M50.9542 149.736C50.4235 147.26 48.0124 144.317 45.7369 143.809C43.0979 143.238 41.8145 144.616 42.1923 145.806C42.5702 146.995 44.6553 147.549 46.68 148.481C47.3617 148.793 47.9849 149.218 48.5229 149.736H50.9542Z" fill="#39B7EB"/>
<path d="M49.9935 149.736H50.3021C49.1859 146.961 46.6479 144.981 44.5714 144.799C44.5526 144.797 44.5336 144.798 44.5155 144.804C44.4974 144.809 44.4806 144.818 44.4661 144.83C44.4516 144.842 44.4396 144.857 44.431 144.874C44.4223 144.89 44.4171 144.908 44.4157 144.927C44.4133 144.946 44.4148 144.965 44.4201 144.983C44.4254 145.001 44.4345 145.018 44.4466 145.032C44.4588 145.046 44.4739 145.058 44.4909 145.067C44.5079 145.075 44.5265 145.08 44.5454 145.081C46.5066 145.255 48.9033 147.115 49.9935 149.736Z" fill="white"/>
<path d="M144.055 123.638L146.215 124.759L146.397 123.421C145.327 120.438 146.207 117.054 147.363 115.645C148.52 114.236 148.298 113.201 147.88 112.738C147.461 112.276 145.875 111.925 144.306 113.74C142.737 115.554 142.377 117.756 142.639 119.978C142.806 121.368 143.545 122.794 144.055 123.638Z" fill="#39B7EB"/>
<path opacity="0.2" d="M144.055 123.638L146.215 124.759L146.397 123.421C145.327 120.438 146.207 117.054 147.363 115.645C148.52 114.236 148.298 113.201 147.88 112.738C147.461 112.276 145.875 111.925 144.306 113.74C142.737 115.554 142.377 117.756 142.639 119.978C142.806 121.368 143.545 122.794 144.055 123.638Z" fill="black"/>
<path d="M144.946 124.101L145.373 124.323C145.369 124.315 145.364 124.307 145.358 124.3C144.747 123.581 143.957 120.061 144.288 117.999C144.698 115.452 146.019 113.788 147.149 113.084C147.163 113.075 147.175 113.064 147.185 113.051C147.194 113.038 147.201 113.023 147.204 113.008C147.208 112.992 147.208 112.976 147.205 112.96C147.202 112.944 147.196 112.929 147.187 112.916C147.169 112.888 147.14 112.869 147.108 112.862C147.076 112.855 147.042 112.861 147.014 112.878C145.86 113.612 144.464 115.332 144.04 117.962C143.735 119.882 144.346 122.922 144.946 124.101Z" fill="white"/>
<path d="M146.259 118.547C146.89 120.079 146.887 120.829 145.858 120.986C144.929 121.123 143.801 122.238 144.848 124.049L150.974 127.227C150.99 126.889 151.074 126.556 151.223 126.251C151.372 125.946 151.581 125.673 151.839 125.45C152.846 124.454 153.775 123.704 153.63 122.597C153.486 121.491 152.514 120.424 152.353 119.46C152.191 118.495 152.687 117.945 153.746 116.864C154.804 115.783 155.765 114.105 154.351 113.341C152.938 112.576 151.32 113.886 150.645 114.767C149.971 115.649 149.353 116.036 148.024 115.962C146.694 115.888 145.627 117.015 146.259 118.547Z" fill="#39B7EB"/>
<path d="M147.992 125.681C147.963 120.98 151.369 115.475 153.264 114.362C153.292 114.344 153.312 114.317 153.32 114.285C153.328 114.253 153.324 114.219 153.308 114.191C153.29 114.163 153.263 114.144 153.231 114.136C153.199 114.128 153.166 114.132 153.137 114.148C151.217 115.289 147.782 120.798 147.744 125.558L147.992 125.681Z" fill="white"/>
<path d="M148.903 120.794C148.877 120.8 148.849 120.797 148.825 120.786C148.801 120.774 148.782 120.755 148.77 120.731C148.22 119.716 147.757 118.657 147.386 117.565C147.381 117.55 147.379 117.534 147.38 117.517C147.382 117.501 147.386 117.486 147.394 117.471C147.401 117.457 147.412 117.444 147.424 117.434C147.437 117.424 147.451 117.416 147.466 117.411C147.482 117.406 147.498 117.404 147.515 117.406C147.531 117.407 147.547 117.412 147.561 117.419C147.576 117.426 147.588 117.437 147.599 117.449C147.609 117.461 147.617 117.476 147.622 117.491C147.99 118.568 148.447 119.612 148.989 120.614C149.005 120.644 149.008 120.678 148.998 120.709C148.988 120.741 148.967 120.767 148.937 120.783L148.903 120.794Z" fill="white"/>
<path d="M148.084 123.675C148.06 123.679 148.036 123.677 148.013 123.669C147.991 123.66 147.972 123.646 147.957 123.627C147.938 123.599 147.931 123.566 147.937 123.533C147.943 123.501 147.961 123.472 147.989 123.453C149.231 122.593 150.737 122.189 152.248 122.312C152.281 122.316 152.311 122.333 152.332 122.359C152.352 122.385 152.361 122.417 152.357 122.45C152.352 122.482 152.335 122.512 152.309 122.532C152.283 122.552 152.25 122.561 152.217 122.557C150.77 122.448 149.329 122.831 148.133 123.644C148.119 123.657 148.102 123.668 148.084 123.675Z" fill="white"/>
<path d="M111.888 94.9599L104.86 90.9463L97.834 94.9599L104.86 98.9735L111.888 94.9599Z" fill="#F5F5F5"/>
<path d="M104.86 107.003L111.888 102.989V94.959L104.86 98.9726V107.003Z" fill="#EBEBEB"/>
<path d="M106.215 104.339C106.178 104.34 106.141 104.331 106.109 104.313C106.064 104.281 106.028 104.238 106.005 104.188C105.982 104.138 105.972 104.083 105.976 104.028V103.172V103.11H106.019L106.694 102.719V103.669C106.693 103.791 106.663 103.911 106.605 104.02C106.547 104.128 106.464 104.221 106.363 104.291C106.319 104.32 106.268 104.336 106.215 104.339ZM106.086 103.235V104.022C106.081 104.059 106.085 104.096 106.099 104.131C106.113 104.165 106.135 104.196 106.164 104.219C106.187 104.23 106.213 104.233 106.238 104.23C106.263 104.227 106.288 104.218 106.308 104.202C106.394 104.142 106.465 104.064 106.515 103.972C106.565 103.88 106.593 103.778 106.596 103.674V103.606H106.345L106.296 103.272L106.086 103.235ZM106.432 103.498H106.588V102.913L106.184 103.144L106.383 103.181L106.432 103.498Z" fill="white"/>
<path d="M106.336 105.018C106.322 105.018 106.308 105.012 106.297 105.002C106.287 104.992 106.281 104.978 106.281 104.964V104.251C106.281 104.243 106.282 104.236 106.285 104.229C106.287 104.223 106.291 104.216 106.296 104.211C106.302 104.206 106.308 104.202 106.315 104.2C106.322 104.197 106.329 104.196 106.336 104.196C106.351 104.196 106.365 104.202 106.375 104.212C106.385 104.222 106.391 104.236 106.391 104.251V104.952C106.392 104.96 106.392 104.968 106.39 104.976C106.387 104.984 106.384 104.991 106.378 104.997C106.373 105.003 106.367 105.008 106.359 105.012C106.352 105.016 106.344 105.018 106.336 105.018Z" fill="white"/>
<path d="M106.022 105.198C106.012 105.198 106.003 105.195 105.995 105.19C105.987 105.185 105.98 105.178 105.976 105.169C105.972 105.164 105.969 105.157 105.968 105.15C105.967 105.143 105.967 105.136 105.969 105.129C105.971 105.122 105.974 105.116 105.979 105.111C105.984 105.105 105.989 105.101 105.996 105.098L106.622 104.739C106.628 104.735 106.635 104.733 106.642 104.732C106.649 104.731 106.656 104.731 106.663 104.733C106.67 104.735 106.677 104.738 106.683 104.743C106.688 104.747 106.693 104.753 106.697 104.759C106.703 104.771 106.705 104.786 106.701 104.8C106.697 104.813 106.689 104.825 106.677 104.833L106.048 105.189L106.022 105.198Z" fill="white"/>
<path d="M108.26 103.965C108.24 103.971 108.219 103.971 108.2 103.965C108.178 103.951 108.162 103.931 108.15 103.909C108.139 103.886 108.134 103.861 108.136 103.836V103.691C108.136 103.684 108.137 103.677 108.139 103.67C108.142 103.664 108.145 103.658 108.15 103.653C108.155 103.648 108.161 103.644 108.167 103.641C108.174 103.638 108.181 103.637 108.188 103.637C108.195 103.636 108.203 103.637 108.209 103.64C108.216 103.642 108.223 103.646 108.228 103.652C108.233 103.657 108.237 103.663 108.239 103.67C108.242 103.676 108.243 103.684 108.243 103.691V103.811C108.243 103.833 108.243 103.845 108.243 103.845C108.243 103.845 108.26 103.845 108.277 103.845C108.311 103.815 108.337 103.778 108.355 103.736C108.372 103.695 108.38 103.65 108.378 103.605V102.67C108.378 102.663 108.38 102.656 108.383 102.649C108.385 102.643 108.389 102.637 108.395 102.632C108.4 102.627 108.406 102.624 108.412 102.621C108.419 102.619 108.426 102.618 108.433 102.618C108.447 102.618 108.46 102.624 108.47 102.633C108.48 102.643 108.485 102.656 108.485 102.67V103.622C108.487 103.686 108.475 103.749 108.448 103.807C108.422 103.865 108.382 103.916 108.332 103.956C108.309 103.963 108.284 103.966 108.26 103.965Z" fill="white"/>
<path d="M107.689 103.134V103.043C107.702 102.806 107.772 102.574 107.892 102.368C108.012 102.162 108.18 101.987 108.381 101.857C108.453 101.797 108.542 101.76 108.636 101.752C108.729 101.744 108.823 101.764 108.905 101.81C108.987 101.857 109.052 101.927 109.092 102.011C109.132 102.095 109.144 102.19 109.128 102.282V102.313L107.689 103.134ZM108.704 101.868C108.609 101.871 108.516 101.899 108.436 101.951C108.265 102.062 108.119 102.209 108.01 102.381C107.901 102.552 107.83 102.745 107.801 102.946L109.019 102.253C109.023 102.186 109.01 102.118 108.981 102.057C108.952 101.996 108.907 101.944 108.851 101.905C108.806 101.88 108.756 101.867 108.704 101.868Z" fill="white"/>
<path d="M110.19 102.869C110.176 102.869 110.162 102.864 110.152 102.854C110.142 102.844 110.136 102.831 110.135 102.818V100.998C110.135 100.983 110.141 100.969 110.151 100.959C110.161 100.949 110.175 100.943 110.19 100.943C110.204 100.943 110.218 100.949 110.228 100.959C110.239 100.969 110.244 100.983 110.244 100.998V102.818C110.244 102.831 110.238 102.844 110.227 102.854C110.217 102.864 110.204 102.869 110.19 102.869Z" fill="white"/>
<path d="M110.043 101.412H110.023C110.016 101.409 110.01 101.405 110.005 101.4C110 101.395 109.996 101.389 109.993 101.382C109.99 101.376 109.989 101.369 109.989 101.361C109.989 101.354 109.991 101.347 109.994 101.341L110.187 100.901L110.4 101.147C110.405 101.152 110.408 101.158 110.411 101.165C110.413 101.171 110.414 101.178 110.413 101.185C110.412 101.192 110.411 101.199 110.407 101.205C110.404 101.211 110.4 101.216 110.395 101.221C110.389 101.225 110.383 101.229 110.377 101.231C110.37 101.233 110.363 101.234 110.356 101.233C110.349 101.233 110.342 101.231 110.336 101.228C110.33 101.225 110.324 101.22 110.32 101.215L110.216 101.101L110.092 101.386C110.087 101.395 110.08 101.402 110.071 101.406C110.062 101.411 110.053 101.413 110.043 101.412Z" fill="white"/>
<path d="M110.7 102.59C110.686 102.589 110.673 102.583 110.663 102.573C110.653 102.563 110.648 102.55 110.648 102.536V100.716C110.646 100.708 110.646 100.7 110.648 100.692C110.65 100.684 110.653 100.676 110.658 100.67C110.663 100.664 110.67 100.658 110.677 100.655C110.685 100.651 110.693 100.649 110.701 100.649C110.71 100.649 110.718 100.651 110.725 100.655C110.733 100.658 110.739 100.664 110.744 100.67C110.749 100.676 110.753 100.684 110.755 100.692C110.757 100.7 110.757 100.708 110.755 100.716V102.536C110.755 102.55 110.749 102.564 110.739 102.574C110.728 102.584 110.714 102.59 110.7 102.59Z" fill="white"/>
<path d="M110.541 101.13H110.521C110.514 101.127 110.508 101.123 110.503 101.118C110.498 101.113 110.494 101.107 110.492 101.1C110.489 101.093 110.488 101.086 110.488 101.079C110.488 101.072 110.489 101.065 110.492 101.058L110.686 100.619L110.899 100.864C110.908 100.875 110.914 100.888 110.914 100.902C110.914 100.915 110.908 100.929 110.899 100.939C110.888 100.948 110.874 100.954 110.86 100.954C110.846 100.954 110.832 100.948 110.821 100.939L110.72 100.822L110.596 101.107C110.59 101.116 110.582 101.122 110.572 101.126C110.562 101.13 110.552 101.132 110.541 101.13Z" fill="white"/>
<path d="M104.86 107.003L97.8311 102.989L97.8339 94.959L104.86 98.9726V107.003Z" fill="#E0E0E0"/>
<path d="M101.728 97.1849L108.751 93.1684L107.958 92.7148L100.932 96.7313L101.728 97.1849Z" fill="white"/>
<path d="M98.8984 99.5636L101.416 100.99C101.561 101.084 101.681 101.211 101.768 101.359C101.855 101.508 101.905 101.674 101.915 101.846V103.38C101.915 103.697 101.69 103.825 101.416 103.666L98.8984 102.239C98.7534 102.145 98.6328 102.019 98.5461 101.87C98.4595 101.721 98.4092 101.555 98.3994 101.384V99.8488C98.3994 99.5322 98.6244 99.4067 98.8984 99.5636Z" fill="#39B7EB"/>
<path d="M98.7051 99.9453L98.8003 100.002V101.705L98.7051 101.651V99.9453Z" fill="#39B7EB"/>
<path d="M99.0947 100.168L99.2591 100.265V101.968L99.0947 101.874V100.168Z" fill="#39B7EB"/>
<path d="M99.4839 100.391L99.5791 100.445V102.151L99.4839 102.096V100.391Z" fill="#39B7EB"/>
<path d="M99.7749 100.557L99.9681 100.668V102.374L99.7749 102.26V100.557Z" fill="#39B7EB"/>
<path d="M100.26 100.835L100.358 100.889V102.595L100.26 102.538V100.835Z" fill="#39B7EB"/>
<path d="M100.543 100.992L100.745 101.112V102.815L100.54 102.695L100.543 100.992Z" fill="#39B7EB"/>
<path d="M101.038 101.28L101.133 101.334V103.037L101.038 102.983V101.28Z" fill="#39B7EB"/>
<path d="M101.261 101.403L101.31 101.432V103.135L101.261 103.109V101.403Z" fill="#39B7EB"/>
<path d="M100.862 101.188L100.908 101.216V102.919L100.862 102.893V101.188Z" fill="#39B7EB"/>
<path d="M100.078 100.733L100.124 100.759V102.465L100.078 102.436V100.733Z" fill="#39B7EB"/>
<path d="M99.6479 100.488L99.697 100.517V102.223L99.6479 102.194V100.488Z" fill="#39B7EB"/>
<path d="M99.3398 100.319L99.3889 100.348V102.054L99.3398 102.025V100.319Z" fill="#39B7EB"/>
<path d="M98.9209 100.068L98.9699 100.097V101.803L98.9209 101.774V100.068Z" fill="#39B7EB"/>
<path d="M101.428 101.501L101.523 101.555V103.261L101.428 103.207V101.501Z" fill="#39B7EB"/>
<path d="M102.517 93.6215L94.3152 88.9404L86.1157 93.6215L94.3152 98.3055L102.517 93.6215Z" fill="#F5F5F5"/>
<path d="M90.8 96.2978L99.0023 91.6166L98.2063 91.1631L90.0068 95.8442L90.8 96.2978Z" fill="white"/>
<path d="M94.3154 113.023L102.518 108.341V93.6221L94.3154 98.306V113.023Z" fill="#EBEBEB"/>
<path d="M95.6714 110.371C95.6338 110.372 95.5968 110.362 95.5647 110.343C95.5192 110.311 95.483 110.268 95.4597 110.218C95.4364 110.168 95.4269 110.112 95.432 110.057V109.202V109.139H95.4782L96.1502 108.748V109.698C96.1488 109.82 96.1179 109.94 96.0603 110.049C96.0026 110.157 95.9197 110.25 95.8185 110.32C95.7752 110.35 95.7243 110.368 95.6714 110.371ZM95.5416 109.267V110.055C95.5368 110.091 95.5414 110.128 95.555 110.163C95.5687 110.197 95.5908 110.228 95.6195 110.251C95.6428 110.262 95.6686 110.266 95.694 110.263C95.7194 110.26 95.7435 110.25 95.7637 110.234C95.8501 110.175 95.9211 110.096 95.9712 110.004C96.0213 109.913 96.049 109.811 96.0521 109.707V109.638H95.8012L95.7522 109.304L95.5416 109.267ZM95.8877 109.53H96.0579V108.945L95.6541 109.179L95.8531 109.213L95.8877 109.53Z" fill="white"/>
<path d="M95.7921 111.039C95.7776 111.039 95.7636 111.034 95.7534 111.024C95.7431 111.013 95.7373 111 95.7373 110.985V110.269C95.7373 110.262 95.7387 110.255 95.7415 110.249C95.7443 110.242 95.7484 110.237 95.7535 110.232C95.7586 110.227 95.7647 110.223 95.7713 110.221C95.778 110.219 95.785 110.217 95.7921 110.218C95.8061 110.218 95.8197 110.223 95.8299 110.233C95.8401 110.242 95.8462 110.255 95.8469 110.269V110.985C95.8462 110.999 95.8402 111.013 95.8301 111.023C95.8199 111.033 95.8064 111.039 95.7921 111.039Z" fill="white"/>
<path d="M95.4808 111.228C95.4715 111.229 95.4623 111.226 95.4541 111.222C95.446 111.217 95.4393 111.211 95.4346 111.203C95.428 111.19 95.4265 111.175 95.4302 111.162C95.4339 111.148 95.4427 111.136 95.4548 111.129L96.0807 110.772C96.0869 110.768 96.0938 110.766 96.101 110.765C96.1081 110.764 96.1154 110.765 96.1223 110.767C96.1293 110.768 96.1358 110.772 96.1416 110.776C96.1473 110.78 96.1521 110.786 96.1556 110.792C96.1592 110.798 96.1615 110.804 96.1624 110.811C96.1633 110.818 96.1628 110.825 96.1609 110.832C96.159 110.838 96.1558 110.845 96.1514 110.85C96.147 110.855 96.1416 110.86 96.1355 110.863L95.5067 111.223C95.4989 111.227 95.4898 111.229 95.4808 111.228Z" fill="white"/>
<path d="M97.7157 109.987C97.6946 109.987 97.6739 109.982 97.6551 109.973C97.6341 109.959 97.6171 109.939 97.606 109.917C97.5948 109.894 97.5899 109.869 97.5917 109.844V109.696C97.5917 109.689 97.5931 109.682 97.5959 109.676C97.5987 109.669 97.6027 109.663 97.6079 109.659C97.613 109.654 97.6191 109.65 97.6257 109.648C97.6323 109.645 97.6394 109.644 97.6465 109.645C97.6533 109.645 97.66 109.646 97.6663 109.648C97.6726 109.651 97.6783 109.655 97.6832 109.66C97.688 109.664 97.6918 109.67 97.6944 109.676C97.697 109.682 97.6984 109.689 97.6984 109.696V109.844C97.6984 109.864 97.6984 109.876 97.6984 109.878C97.6984 109.881 97.7157 109.878 97.733 109.878C97.7666 109.848 97.7931 109.81 97.8106 109.768C97.828 109.726 97.836 109.681 97.8339 109.636V108.686C97.8339 108.672 97.8397 108.658 97.85 108.648C97.8602 108.638 97.8742 108.632 97.8887 108.632C97.903 108.633 97.9166 108.638 97.9267 108.648C97.9368 108.658 97.9428 108.672 97.9435 108.686V109.636C97.9462 109.7 97.9335 109.763 97.9064 109.821C97.8794 109.879 97.8387 109.93 97.7878 109.97C97.7654 109.981 97.7407 109.987 97.7157 109.987Z" fill="white"/>
<path d="M97.145 109.156V109.062C97.1587 108.825 97.2284 108.594 97.3486 108.388C97.4689 108.183 97.6362 108.008 97.8372 107.878C97.9092 107.818 97.9981 107.782 98.0918 107.773C98.1855 107.765 98.2795 107.785 98.3611 107.832C98.4427 107.878 98.5078 107.948 98.5477 108.033C98.5876 108.117 98.6003 108.211 98.5842 108.303V108.334L97.145 109.156ZM98.1602 107.887C98.0651 107.891 97.9727 107.919 97.892 107.969C97.7204 108.081 97.575 108.228 97.4655 108.401C97.3561 108.573 97.2852 108.766 97.2575 108.968L98.4746 108.275C98.4789 108.207 98.4658 108.139 98.4365 108.078C98.4073 108.016 98.3628 107.963 98.3073 107.924C98.2622 107.899 98.2116 107.887 98.1602 107.887Z" fill="white"/>
<path d="M99.6568 108.891C99.6423 108.891 99.6284 108.886 99.6181 108.875C99.6078 108.865 99.6021 108.851 99.6021 108.837V107.017C99.6021 107.003 99.6078 106.989 99.6181 106.979C99.6284 106.969 99.6423 106.963 99.6568 106.963C99.6714 106.963 99.6853 106.969 99.6956 106.979C99.7059 106.989 99.7116 107.003 99.7116 107.017V108.837C99.7116 108.851 99.7059 108.865 99.6956 108.875C99.6853 108.886 99.6714 108.891 99.6568 108.891Z" fill="white"/>
<path d="M99.4982 107.434H99.478C99.4715 107.431 99.4655 107.427 99.4605 107.422C99.4555 107.418 99.4515 107.412 99.4488 107.405C99.4461 107.399 99.4448 107.392 99.4448 107.385C99.4449 107.378 99.4464 107.371 99.4492 107.365L99.6424 106.926L99.8558 107.171C99.865 107.182 99.8696 107.195 99.8685 107.209C99.8674 107.223 99.8608 107.236 99.8501 107.245C99.8393 107.254 99.8254 107.259 99.8114 107.258C99.7973 107.257 99.7843 107.25 99.7751 107.24L99.6712 107.123L99.5472 107.408C99.5424 107.416 99.5352 107.423 99.5265 107.428C99.5178 107.432 99.508 107.434 99.4982 107.434Z" fill="white"/>
<path d="M100.156 108.609C100.142 108.609 100.129 108.604 100.119 108.594C100.11 108.585 100.104 108.571 100.104 108.558V106.738C100.104 106.731 100.105 106.724 100.107 106.717C100.11 106.711 100.113 106.705 100.118 106.7C100.123 106.695 100.129 106.691 100.135 106.688C100.142 106.685 100.149 106.684 100.156 106.684C100.163 106.683 100.171 106.684 100.177 106.687C100.184 106.69 100.191 106.694 100.196 106.699C100.201 106.704 100.205 106.71 100.207 106.717C100.21 106.723 100.211 106.731 100.211 106.738V108.558C100.211 108.565 100.209 108.572 100.207 108.578C100.204 108.585 100.2 108.59 100.195 108.595C100.189 108.6 100.183 108.604 100.177 108.606C100.17 108.609 100.163 108.61 100.156 108.609Z" fill="white"/>
<path d="M100 107.151H99.9773C99.9644 107.145 99.9543 107.134 99.9489 107.121C99.9436 107.108 99.9434 107.093 99.9485 107.08L100.142 106.641L100.358 106.886C100.367 106.896 100.372 106.909 100.372 106.923C100.372 106.937 100.367 106.95 100.358 106.96C100.353 106.965 100.347 106.969 100.34 106.972C100.333 106.975 100.326 106.976 100.319 106.976C100.312 106.976 100.305 106.975 100.298 106.972C100.291 106.969 100.285 106.965 100.28 106.96L100.179 106.843L100.055 107.128C100.05 107.137 100.041 107.144 100.031 107.148C100.022 107.152 100.011 107.153 100 107.151Z" fill="white"/>
<path d="M94.3152 113.023L86.1157 108.341V93.6221L94.3152 98.306V113.023Z" fill="#E0E0E0"/>
<path d="M87.7831 105.28L90.298 106.707C90.4435 106.801 90.5647 106.927 90.6519 107.076C90.7391 107.224 90.7897 107.391 90.7999 107.563V109.1C90.7999 109.414 90.5749 109.542 90.298 109.385L87.7831 107.959C87.6377 107.865 87.5167 107.739 87.43 107.59C87.3433 107.442 87.2933 107.275 87.2842 107.103V105.569C87.2842 105.238 87.5091 105.124 87.7831 105.28Z" fill="#F5F5F5"/>
<path d="M87.5898 105.663L87.685 105.72V107.423L87.5898 107.369V105.663Z" fill="#E0E0E0"/>
<path d="M87.98 105.885L88.1444 105.982V107.688L87.98 107.591V105.885Z" fill="#E0E0E0"/>
<path d="M88.3657 106.107L88.4638 106.162L88.4609 107.867L88.3657 107.813V106.107Z" fill="#E0E0E0"/>
<path d="M88.6602 106.272L88.8505 106.384V108.09L88.6602 107.975V106.272Z" fill="#E0E0E0"/>
<path d="M89.144 106.553L89.2392 106.607V108.313L89.144 108.256V106.553Z" fill="#E0E0E0"/>
<path d="M89.4243 106.709L89.6291 106.829V108.532L89.4243 108.412V106.709Z" fill="#E0E0E0"/>
<path d="M89.9229 106.995L90.018 107.052V108.755L89.9229 108.701V106.995Z" fill="#E0E0E0"/>
<path d="M90.1455 107.12L90.1945 107.149V108.854L90.1455 108.826V107.12Z" fill="#E0E0E0"/>
<path d="M89.7471 106.903L89.7932 106.932V108.635L89.7471 108.609V106.903Z" fill="#E0E0E0"/>
<path d="M88.9624 106.45L89.0085 106.476V108.182L88.9624 108.153V106.45Z" fill="#E0E0E0"/>
<path d="M88.5332 106.204L88.5793 106.233V107.938L88.5332 107.91V106.204Z" fill="#E0E0E0"/>
<path d="M88.2241 106.036L88.2731 106.065V107.771L88.2241 107.742V106.036Z" fill="#E0E0E0"/>
<path d="M87.8062 105.785L87.8552 105.814V107.52L87.8062 107.491V105.785Z" fill="#E0E0E0"/>
<path d="M90.3125 107.217L90.4077 107.271V108.977L90.3125 108.923V107.217Z" fill="#E0E0E0"/>
<path d="M90.0068 97.7436L90.8 98.1971V96.2973L90.0068 95.8438V97.7436Z" fill="#F0F0F0"/>
<path d="M77.9139 109.008L72.0564 105.665L63.8569 110.346L69.7145 113.692L77.9139 109.008Z" fill="#F5F5F5"/>
<path d="M69.7144 127.07L77.9138 122.389V109.008L69.7144 113.692V127.07Z" fill="#EBEBEB"/>
<path d="M71.0673 124.409C71.0306 124.41 70.9945 124.4 70.9635 124.381C70.9182 124.349 70.8822 124.306 70.8589 124.256C70.8356 124.205 70.8259 124.15 70.8308 124.095V123.24V123.177H70.8741L71.549 122.786V123.736C71.5475 123.858 71.5167 123.978 71.459 124.087C71.4014 124.195 71.3185 124.288 71.2173 124.358C71.1727 124.388 71.121 124.406 71.0673 124.409ZM70.9404 123.305V124.093C70.9351 124.129 70.9394 124.167 70.9531 124.201C70.9667 124.236 70.9892 124.266 71.0183 124.289C71.0419 124.299 71.0674 124.302 71.0926 124.299C71.1177 124.296 71.1418 124.287 71.1625 124.272C71.2489 124.213 71.3199 124.134 71.37 124.042C71.4201 123.951 71.4478 123.849 71.4509 123.745V123.676H71.2L71.151 123.342L70.9404 123.305ZM71.2865 123.568H71.4422V122.98L71.0385 123.214L71.2375 123.248L71.2865 123.568Z" fill="white"/>
<path d="M71.191 125.088C71.1765 125.088 71.1626 125.083 71.1523 125.072C71.142 125.062 71.1362 125.048 71.1362 125.034V124.318C71.1362 124.311 71.1377 124.304 71.1404 124.298C71.1432 124.291 71.1473 124.285 71.1524 124.281C71.1576 124.276 71.1636 124.272 71.1703 124.27C71.1769 124.267 71.184 124.266 71.191 124.267C71.2048 124.267 71.218 124.272 71.2277 124.282C71.2375 124.291 71.2429 124.304 71.2429 124.318V125.034C71.243 125.048 71.2376 125.061 71.2279 125.071C71.2183 125.081 71.2051 125.087 71.191 125.088Z" fill="white"/>
<path d="M70.8763 125.264C70.8669 125.265 70.8576 125.263 70.8494 125.258C70.8412 125.254 70.8345 125.247 70.8301 125.239C70.826 125.233 70.8231 125.226 70.8217 125.219C70.8204 125.212 70.8205 125.205 70.8221 125.198C70.8238 125.191 70.8269 125.184 70.8312 125.179C70.8356 125.173 70.8411 125.168 70.8474 125.165L71.4761 124.808C71.4824 124.804 71.4893 124.802 71.4964 124.801C71.5036 124.8 71.5109 124.801 71.5178 124.803C71.5248 124.804 71.5313 124.808 71.537 124.812C71.5427 124.816 71.5475 124.822 71.5511 124.828C71.5547 124.834 71.557 124.841 71.5579 124.847C71.5588 124.854 71.5583 124.861 71.5564 124.868C71.5545 124.875 71.5513 124.881 71.5469 124.886C71.5425 124.892 71.5371 124.896 71.5309 124.899L70.9022 125.259C70.8944 125.263 70.8853 125.265 70.8763 125.264Z" fill="white"/>
<path d="M73.1146 124.035C73.0936 124.035 73.0728 124.03 73.054 124.021C73.033 124.007 73.016 123.988 73.0049 123.965C72.9937 123.943 72.9888 123.918 72.9906 123.893V123.744C72.9906 123.731 72.9961 123.718 73.0058 123.708C73.0155 123.698 73.0287 123.693 73.0425 123.693C73.0496 123.693 73.0566 123.694 73.0633 123.696C73.0699 123.698 73.076 123.702 73.0811 123.707C73.0862 123.712 73.0903 123.718 73.0931 123.724C73.0959 123.73 73.0973 123.737 73.0973 123.744V123.893C73.0973 123.913 73.0973 123.924 73.0973 123.927C73.0973 123.93 73.1146 123.927 73.1319 123.927C73.165 123.896 73.191 123.858 73.2084 123.816C73.2258 123.775 73.2341 123.73 73.2328 123.684V122.735C73.231 122.727 73.2309 122.718 73.2327 122.71C73.2345 122.702 73.2381 122.695 73.2433 122.688C73.2484 122.682 73.2549 122.677 73.2624 122.673C73.2698 122.67 73.2779 122.668 73.2862 122.668C73.2945 122.668 73.3026 122.67 73.31 122.673C73.3175 122.677 73.324 122.682 73.3291 122.688C73.3343 122.695 73.3379 122.702 73.3397 122.71C73.3415 122.718 73.3414 122.727 73.3396 122.735V123.684C73.3419 123.748 73.3294 123.811 73.3028 123.869C73.2763 123.927 73.2366 123.978 73.1867 124.018C73.1643 124.029 73.1396 124.035 73.1146 124.035Z" fill="white"/>
<path d="M72.5439 123.208V123.114C72.5576 122.877 72.6274 122.646 72.7476 122.441C72.8678 122.235 73.0351 122.06 73.2361 121.93C73.3078 121.87 73.3966 121.833 73.4904 121.824C73.5843 121.816 73.6785 121.836 73.7601 121.883C73.8417 121.929 73.9067 122 73.9461 122.084C73.9855 122.169 73.9975 122.264 73.9802 122.355V122.387L72.5439 123.208ZM73.5591 121.939C73.464 121.943 73.3716 121.972 73.2909 122.022C73.1193 122.134 72.9739 122.281 72.8645 122.453C72.755 122.625 72.6841 122.819 72.6564 123.02L73.8735 122.324C73.8776 122.257 73.8644 122.19 73.8351 122.129C73.8059 122.068 73.7615 122.015 73.7062 121.976C73.6622 121.951 73.6127 121.937 73.562 121.936L73.5591 121.939Z" fill="white"/>
<path d="M75.0558 122.941C75.0412 122.941 75.0273 122.935 75.017 122.925C75.0067 122.915 75.001 122.901 75.001 122.887V121.067C75.001 121.053 75.0067 121.039 75.017 121.029C75.0273 121.018 75.0412 121.013 75.0558 121.013C75.0703 121.013 75.0842 121.018 75.0945 121.029C75.1048 121.039 75.1106 121.053 75.1106 121.067V122.887C75.1106 122.901 75.1048 122.915 75.0945 122.925C75.0842 122.935 75.0703 122.941 75.0558 122.941Z" fill="white"/>
<path d="M74.8971 121.497H74.8769C74.8704 121.495 74.8644 121.491 74.8594 121.486C74.8544 121.481 74.8504 121.475 74.8477 121.469C74.845 121.462 74.8437 121.456 74.8438 121.449C74.8438 121.442 74.8453 121.435 74.8481 121.429L75.0413 120.989L75.2548 121.235C75.2639 121.245 75.2685 121.259 75.2674 121.273C75.2663 121.287 75.2597 121.3 75.249 121.309C75.2437 121.313 75.2375 121.317 75.2309 121.319C75.2243 121.321 75.2173 121.322 75.2103 121.321C75.1962 121.32 75.1832 121.314 75.174 121.303L75.0702 121.186L74.9462 121.471C74.9413 121.48 74.9341 121.487 74.9254 121.491C74.9167 121.496 74.9069 121.498 74.8971 121.497Z" fill="white"/>
<path d="M75.5548 122.658C75.5408 122.658 75.5272 122.653 75.517 122.643C75.5068 122.634 75.5007 122.621 75.5 122.607V120.787C75.5 120.772 75.5058 120.759 75.516 120.748C75.5263 120.738 75.5403 120.733 75.5548 120.733C75.5621 120.732 75.5694 120.733 75.5763 120.736C75.5831 120.738 75.5893 120.742 75.5945 120.747C75.5996 120.753 75.6037 120.759 75.6063 120.765C75.6089 120.772 75.61 120.779 75.6096 120.787V122.607C75.6096 122.614 75.6082 122.621 75.6054 122.627C75.6026 122.633 75.5985 122.639 75.5934 122.644C75.5883 122.649 75.5822 122.653 75.5756 122.655C75.5689 122.657 75.5619 122.658 75.5548 122.658Z" fill="white"/>
<path d="M75.3957 121.212C75.3892 121.214 75.382 121.214 75.3755 121.212C75.3689 121.209 75.363 121.206 75.358 121.201C75.3529 121.196 75.349 121.19 75.3463 121.184C75.3436 121.177 75.3422 121.17 75.3423 121.164C75.3423 121.157 75.3438 121.15 75.3466 121.143L75.5399 120.704L75.7533 120.949C75.7628 120.959 75.7681 120.973 75.7681 120.987C75.7681 121 75.7628 121.014 75.7533 121.024C75.7482 121.029 75.7421 121.033 75.7354 121.035C75.7288 121.038 75.7216 121.04 75.7144 121.04C75.7071 121.04 75.6999 121.038 75.6933 121.035C75.6866 121.033 75.6805 121.029 75.6754 121.024L75.5745 120.907L75.4505 121.192C75.4442 121.2 75.4357 121.206 75.426 121.21C75.4163 121.213 75.4058 121.214 75.3957 121.212Z" fill="white"/>
<path d="M69.7145 127.07L63.8569 123.727V110.346L69.7145 113.692V127.07Z" fill="#E0E0E0"/>
<path d="M66.5762 113.8L67.3693 114.254V112.354L66.5762 111.9V113.8Z" fill="#F5F5F5"/>
<path d="M67.3693 112.354L75.5716 107.67L74.7756 107.217L66.5762 111.901L67.3693 112.354Z" fill="white"/>
<path d="M67.3697 120.382L56.8284 114.363L46.2842 120.382L56.8284 126.404L67.3697 120.382Z" fill="#F5F5F5"/>
<path d="M56.8286 134.431L67.3699 128.412V120.382L56.8286 126.404V134.431Z" fill="#EBEBEB"/>
<path d="M58.181 131.767C58.1445 131.766 58.1087 131.756 58.0771 131.738C58.0321 131.706 57.9962 131.663 57.9729 131.613C57.9497 131.563 57.9399 131.508 57.9445 131.453V130.597V130.534H57.9877L58.6626 130.141V131.093C58.6607 131.215 58.6297 131.335 58.572 131.442C58.5144 131.55 58.4318 131.643 58.3309 131.712C58.2865 131.743 58.2349 131.762 58.181 131.767ZM58.0512 130.663V131.45C58.046 131.486 58.0505 131.523 58.0642 131.557C58.0778 131.591 58.1002 131.621 58.129 131.644C58.1526 131.655 58.1787 131.659 58.2045 131.656C58.2304 131.654 58.2551 131.645 58.2761 131.63C58.3622 131.57 58.433 131.491 58.483 131.399C58.5331 131.308 58.561 131.206 58.5645 131.102V131.031H58.305L58.2559 130.697L58.0512 130.663ZM58.3973 130.925H58.5645V130.34L58.1636 130.574L58.3627 130.608L58.3973 130.925Z" fill="white"/>
<path d="M58.3019 132.445C58.2951 132.445 58.2883 132.444 58.282 132.441C58.2757 132.439 58.27 132.435 58.2652 132.43C58.2604 132.425 58.2565 132.42 58.2539 132.414C58.2513 132.407 58.25 132.401 58.25 132.394V131.678C58.2481 131.67 58.2481 131.662 58.2499 131.654C58.2517 131.646 58.2553 131.638 58.2604 131.632C58.2655 131.625 58.2721 131.62 58.2795 131.617C58.2869 131.613 58.2951 131.611 58.3033 131.611C58.3116 131.611 58.3197 131.613 58.3272 131.617C58.3346 131.62 58.3411 131.625 58.3463 131.632C58.3514 131.638 58.355 131.646 58.3568 131.654C58.3586 131.662 58.3586 131.67 58.3567 131.678V132.394C58.3567 132.401 58.3553 132.408 58.3525 132.414C58.3497 132.421 58.3456 132.426 58.3405 132.431C58.3353 132.436 58.3293 132.44 58.3226 132.442C58.316 132.445 58.3089 132.446 58.3019 132.445Z" fill="white"/>
<path d="M57.9874 132.622C57.9759 132.621 57.9648 132.617 57.9559 132.609C57.947 132.602 57.9406 132.592 57.9378 132.581C57.9349 132.57 57.9356 132.558 57.9399 132.548C57.9441 132.537 57.9517 132.528 57.9614 132.522L58.5902 132.165C58.5959 132.161 58.6024 132.158 58.6093 132.157C58.6162 132.156 58.6233 132.156 58.6302 132.158C58.637 132.159 58.6434 132.162 58.649 132.167C58.6545 132.171 58.659 132.176 58.6623 132.182C58.6664 132.188 58.6693 132.195 58.6706 132.202C58.672 132.209 58.6719 132.216 58.6703 132.223C58.6686 132.23 58.6655 132.237 58.6612 132.243C58.6568 132.248 58.6513 132.253 58.645 132.257L58.0162 132.622H57.9874Z" fill="white"/>
<path d="M60.226 131.395C60.207 131.4 60.1873 131.4 60.1683 131.395C60.1463 131.382 60.1285 131.362 60.1168 131.339C60.1051 131.316 60.1 131.29 60.102 131.264V131.119C60.102 131.104 60.1078 131.091 60.118 131.08C60.1283 131.07 60.1422 131.065 60.1568 131.065C60.1713 131.065 60.1853 131.07 60.1955 131.08C60.2058 131.091 60.2116 131.104 60.2116 131.119V131.264C60.2076 131.276 60.2076 131.289 60.2116 131.301C60.2116 131.301 60.2289 131.301 60.2491 131.301C60.2816 131.27 60.3072 131.232 60.324 131.19C60.3409 131.149 60.3488 131.104 60.3471 131.059V130.109C60.3478 130.095 60.3538 130.081 60.364 130.071C60.3741 130.061 60.3876 130.055 60.4019 130.055C60.4165 130.055 60.4304 130.06 60.4407 130.071C60.451 130.081 60.4567 130.095 60.4567 130.109V131.059C60.4591 131.122 60.4465 131.186 60.42 131.243C60.3935 131.301 60.3537 131.352 60.3039 131.393C60.2785 131.4 60.2518 131.401 60.226 131.395Z" fill="white"/>
<path d="M59.6577 130.566V130.472C59.6702 130.234 59.7395 130.003 59.8598 129.797C59.9802 129.592 60.1481 129.417 60.3499 129.288C60.4215 129.227 60.5104 129.19 60.6042 129.182C60.6981 129.173 60.7923 129.193 60.8739 129.24C60.9555 129.287 61.0205 129.357 61.0599 129.442C61.0993 129.527 61.1112 129.621 61.094 129.713V129.744L59.6577 130.566ZM60.6729 129.296C60.577 129.301 60.4838 129.33 60.4018 129.379C60.2307 129.491 60.0859 129.639 59.9769 129.811C59.868 129.983 59.7975 130.176 59.7702 130.377L60.9844 129.681C60.989 129.614 60.9764 129.547 60.9476 129.486C60.9189 129.426 60.875 129.373 60.82 129.333C60.7752 129.308 60.7244 129.296 60.6729 129.296Z" fill="white"/>
<path d="M62.17 130.3C62.1627 130.3 62.1554 130.299 62.1486 130.297C62.1417 130.294 62.1355 130.29 62.1303 130.285C62.1252 130.28 62.1211 130.274 62.1185 130.267C62.1159 130.26 62.1148 130.253 62.1152 130.246V128.426C62.1133 128.418 62.1133 128.41 62.1151 128.402C62.1169 128.394 62.1205 128.386 62.1256 128.38C62.1308 128.373 62.1373 128.368 62.1447 128.365C62.1522 128.361 62.1603 128.359 62.1686 128.359C62.1768 128.359 62.185 128.361 62.1924 128.365C62.1998 128.368 62.2064 128.373 62.2115 128.38C62.2166 128.386 62.2202 128.394 62.222 128.402C62.2238 128.41 62.2238 128.418 62.2219 128.426V130.246C62.2223 130.253 62.2213 130.26 62.2188 130.266C62.2164 130.273 62.2126 130.279 62.2078 130.284C62.2029 130.289 62.1971 130.293 62.1906 130.296C62.1841 130.299 62.1771 130.3 62.17 130.3Z" fill="white"/>
<path d="M62.0257 128.843H62.0026C61.996 128.84 61.99 128.836 61.985 128.831C61.98 128.825 61.9762 128.819 61.9738 128.813C61.9713 128.806 61.9703 128.799 61.9708 128.792C61.9713 128.785 61.9733 128.778 61.9767 128.771L62.167 128.332L62.3833 128.577C62.3929 128.588 62.3977 128.603 62.3966 128.617C62.3955 128.631 62.3887 128.645 62.3776 128.654C62.3665 128.664 62.352 128.669 62.3374 128.667C62.3228 128.666 62.3093 128.66 62.2997 128.649L62.1988 128.532L62.0747 128.817C62.0696 128.825 62.0624 128.832 62.0538 128.836C62.0451 128.841 62.0355 128.843 62.0257 128.843Z" fill="white"/>
<path d="M62.6686 130.018C62.654 130.018 62.6401 130.012 62.6298 130.002C62.6195 129.992 62.6138 129.978 62.6138 129.964V128.144C62.6138 128.13 62.6195 128.116 62.6298 128.106C62.6401 128.096 62.654 128.09 62.6686 128.09C62.6831 128.09 62.697 128.096 62.7073 128.106C62.7176 128.116 62.7234 128.13 62.7234 128.144V129.964C62.7234 129.978 62.7176 129.992 62.7073 130.002C62.697 130.012 62.6831 130.018 62.6686 130.018Z" fill="white"/>
<path d="M62.5099 128.559H62.4897C62.4832 128.557 62.4772 128.553 62.4722 128.548C62.4672 128.543 62.4632 128.538 62.4605 128.531C62.4578 128.525 62.4565 128.518 62.4565 128.511C62.4566 128.504 62.4581 128.497 62.4609 128.491L62.6541 128.049L62.8675 128.294C62.8727 128.299 62.8768 128.305 62.8796 128.312C62.8823 128.318 62.8838 128.325 62.8838 128.333C62.8838 128.34 62.8823 128.347 62.8796 128.354C62.8768 128.36 62.8727 128.366 62.8675 128.371C62.8627 128.376 62.8569 128.38 62.8504 128.383C62.844 128.386 62.8371 128.387 62.8301 128.387C62.823 128.387 62.8161 128.386 62.8097 128.383C62.8032 128.38 62.7974 128.376 62.7926 128.371L62.6887 128.254L62.5647 128.539C62.5587 128.548 62.5502 128.554 62.5404 128.558C62.5307 128.561 62.52 128.562 62.5099 128.559Z" fill="white"/>
<path d="M56.8284 134.431L46.2842 128.412V120.382L56.8284 126.404V134.431Z" fill="#E0E0E0"/>
<path d="M51.1587 125.066L51.9518 125.519V123.62L51.1587 123.166V125.066Z" fill="#F5F5F5"/>
<path d="M51.9518 123.619L62.496 117.6L61.7029 117.144L51.1587 123.165L51.9518 123.619Z" fill="white"/>
<path d="M47.954 125.351L50.4689 126.778C50.6144 126.872 50.7356 126.998 50.8228 127.147C50.9099 127.295 50.9606 127.462 50.9708 127.634V129.171C50.9708 129.485 50.7458 129.613 50.4689 129.456L47.954 128.03C47.8086 127.936 47.6876 127.81 47.6009 127.661C47.5142 127.513 47.4642 127.346 47.4551 127.174V125.64C47.4551 125.32 47.68 125.206 47.954 125.351Z" fill="#F5F5F5"/>
<path d="M47.7607 125.733L47.8559 125.788V127.493L47.7607 127.439V125.733Z" fill="#E0E0E0"/>
<path d="M48.1475 125.955L48.3147 126.052V127.755L48.1475 127.661V125.955Z" fill="#E0E0E0"/>
<path d="M48.5361 126.178L48.6342 126.232L48.6313 127.938L48.5361 127.884V126.178Z" fill="#E0E0E0"/>
<path d="M48.8311 126.344L49.0243 126.455L49.0214 128.161L48.8311 128.047V126.344Z" fill="#E0E0E0"/>
<path d="M49.3154 126.623L49.4106 126.677V128.383L49.3154 128.326V126.623Z" fill="#E0E0E0"/>
<path d="M49.5952 126.78L49.8 126.9V128.603L49.5952 128.483V126.78Z" fill="#E0E0E0"/>
<path d="M50.0938 127.067L50.1889 127.122V128.825L50.0938 128.77V127.067Z" fill="#E0E0E0"/>
<path d="M50.3164 127.19L50.3654 127.219V128.922L50.3164 128.896V127.19Z" fill="#E0E0E0"/>
<path d="M49.9185 126.974L49.9646 126.999V128.705L49.9185 128.679V126.974Z" fill="#E0E0E0"/>
<path d="M49.1343 126.521L49.1804 126.546V128.252L49.1343 128.224V126.521Z" fill="#E0E0E0"/>
<path d="M48.7041 126.275L48.7531 126.304V128.007L48.7041 127.981V126.275Z" fill="#E0E0E0"/>
<path d="M48.395 126.107L48.444 126.136V127.842L48.395 127.813V126.107Z" fill="#E0E0E0"/>
<path d="M47.9771 125.855L48.0261 125.884V127.587L47.9771 127.561V125.855Z" fill="#E0E0E0"/>
<path d="M50.4834 127.288L50.5786 127.345V129.048L50.4834 128.994V127.288Z" fill="#E0E0E0"/>
<path d="M65.0277 104.328L56.8283 99.6436L48.626 104.328L56.8283 109.009L65.0277 104.328Z" fill="#F5F5F5"/>
<path d="M56.8286 125.066L65.028 120.382V104.327L56.8286 109.008V125.066Z" fill="#EBEBEB"/>
<path d="M58.181 122.402C58.1447 122.402 58.109 122.393 58.0771 122.376C58.0321 122.344 57.9962 122.3 57.9729 122.25C57.9497 122.2 57.9399 122.145 57.9445 122.091V121.235V121.172H57.9877L58.6626 120.781V121.731C58.6609 121.853 58.63 121.973 58.5724 122.082C58.5147 122.19 58.432 122.283 58.3309 122.353C58.2861 122.382 58.2344 122.399 58.181 122.402ZM58.0512 121.298V122.088C58.0466 122.124 58.0513 122.161 58.065 122.195C58.0786 122.229 58.1006 122.258 58.129 122.282C58.1526 122.292 58.1787 122.297 58.2045 122.294C58.2304 122.292 58.2551 122.282 58.2761 122.267C58.3622 122.207 58.4331 122.128 58.4831 122.036C58.5331 121.943 58.561 121.841 58.5645 121.737V121.668H58.305L58.2559 121.335L58.0512 121.298ZM58.3973 121.56H58.5645V120.975L58.1636 121.209L58.3627 121.243L58.3973 121.56Z" fill="white"/>
<path d="M58.302 123.08C58.2949 123.08 58.2879 123.079 58.2814 123.076C58.2749 123.073 58.2691 123.069 58.2642 123.064C58.2594 123.059 58.2556 123.053 58.2532 123.047C58.2507 123.04 58.2497 123.033 58.2501 123.026V122.313C58.2497 122.306 58.2507 122.299 58.2532 122.293C58.2556 122.286 58.2594 122.28 58.2642 122.275C58.2691 122.27 58.2749 122.266 58.2814 122.263C58.2879 122.26 58.2949 122.259 58.302 122.259C58.3093 122.258 58.3166 122.26 58.3234 122.262C58.3303 122.265 58.3365 122.269 58.3417 122.274C58.3468 122.279 58.3509 122.285 58.3535 122.292C58.3561 122.299 58.3572 122.306 58.3568 122.313V123.026C58.3572 123.033 58.3561 123.041 58.3535 123.047C58.3509 123.054 58.3468 123.06 58.3417 123.065C58.3365 123.071 58.3303 123.075 58.3234 123.077C58.3166 123.08 58.3093 123.081 58.302 123.08Z" fill="white"/>
<path d="M57.9874 123.26C57.9759 123.26 57.9648 123.255 57.9559 123.248C57.947 123.241 57.9406 123.231 57.9378 123.22C57.9349 123.209 57.9356 123.197 57.9399 123.186C57.9441 123.176 57.9517 123.167 57.9614 123.161L58.5902 122.801C58.6028 122.794 58.6178 122.792 58.6319 122.796C58.6459 122.8 58.6579 122.809 58.6652 122.821C58.6724 122.834 58.6744 122.848 58.6706 122.862C58.6668 122.876 58.6576 122.888 58.645 122.895L58.0162 123.252C58.0078 123.258 57.9977 123.261 57.9874 123.26Z" fill="white"/>
<path d="M60.226 122.03C60.2055 122.03 60.1855 122.024 60.1684 122.013C60.1463 122 60.1284 121.981 60.1167 121.958C60.105 121.935 60.0999 121.91 60.102 121.884V121.739C60.102 121.725 60.1078 121.711 60.1181 121.701C60.1284 121.69 60.1423 121.685 60.1568 121.685C60.1714 121.685 60.1853 121.69 60.1956 121.701C60.2058 121.711 60.2116 121.725 60.2116 121.739V121.884C60.2077 121.897 60.2077 121.909 60.2116 121.922C60.2239 121.925 60.2369 121.925 60.2491 121.922C60.282 121.891 60.3079 121.854 60.3248 121.812C60.3417 121.771 60.3494 121.727 60.3472 121.682V120.732C60.3472 120.718 60.3529 120.704 60.3632 120.694C60.3735 120.684 60.3874 120.678 60.402 120.678C60.4093 120.677 60.4166 120.679 60.4234 120.681C60.4303 120.684 60.4365 120.688 60.4416 120.693C60.4468 120.698 60.4508 120.704 60.4534 120.711C60.4561 120.718 60.4572 120.725 60.4568 120.732V121.682C60.4591 121.745 60.4466 121.809 60.42 121.867C60.3935 121.925 60.3538 121.976 60.3039 122.016C60.2795 122.027 60.2528 122.031 60.226 122.03Z" fill="white"/>
<path d="M59.6577 121.212V121.121C59.6707 120.883 59.7402 120.652 59.8604 120.446C59.9807 120.24 60.1484 120.064 60.3499 119.934C60.4222 119.875 60.5111 119.839 60.6046 119.832C60.6981 119.824 60.7917 119.845 60.8728 119.892C60.9539 119.938 61.0186 120.008 61.0582 120.092C61.0977 120.177 61.1102 120.271 61.094 120.362V120.391L59.6577 121.212ZM60.6729 119.946C60.577 119.951 60.4838 119.979 60.4018 120.028C60.2311 120.14 60.0864 120.287 59.9775 120.459C59.8686 120.631 59.7979 120.823 59.7702 121.024L60.9844 120.331C60.9896 120.264 60.9772 120.196 60.9484 120.135C60.9196 120.074 60.8754 120.022 60.82 119.983C60.7767 119.953 60.7258 119.935 60.6729 119.931V119.946Z" fill="white"/>
<path d="M62.17 120.927C62.1555 120.927 62.1415 120.921 62.1313 120.911C62.121 120.901 62.1152 120.887 62.1152 120.873V119.053C62.1133 119.045 62.1133 119.037 62.1151 119.029C62.1169 119.021 62.1205 119.013 62.1256 119.007C62.1308 119 62.1373 118.995 62.1447 118.992C62.1522 118.988 62.1603 118.986 62.1686 118.986C62.1768 118.986 62.185 118.988 62.1924 118.992C62.1998 118.995 62.2064 119 62.2115 119.007C62.2166 119.013 62.2202 119.021 62.222 119.029C62.2238 119.037 62.2238 119.045 62.2219 119.053V120.873C62.2219 120.887 62.2166 120.9 62.2069 120.91C62.1972 120.92 62.184 120.926 62.17 120.927Z" fill="white"/>
<path d="M62.0257 119.474H62.0026C61.996 119.472 61.99 119.468 61.985 119.462C61.98 119.457 61.9762 119.451 61.9738 119.444C61.9713 119.438 61.9703 119.431 61.9708 119.424C61.9713 119.416 61.9733 119.409 61.9767 119.403L62.167 118.964L62.3833 119.209C62.3929 119.219 62.3982 119.232 62.3982 119.246C62.3982 119.26 62.3929 119.273 62.3833 119.283C62.3727 119.293 62.3588 119.298 62.3444 119.298C62.33 119.298 62.3161 119.293 62.3055 119.283L62.2045 119.166L62.0805 119.452C62.0748 119.461 62.0665 119.468 62.0567 119.472C62.0469 119.476 62.0361 119.477 62.0257 119.474Z" fill="white"/>
<path d="M62.6686 120.641C62.6543 120.641 62.6407 120.635 62.6306 120.625C62.6205 120.615 62.6145 120.601 62.6138 120.587V118.767C62.6138 118.753 62.6195 118.739 62.6298 118.729C62.6401 118.719 62.654 118.713 62.6686 118.713C62.6831 118.713 62.697 118.719 62.7073 118.729C62.7176 118.739 62.7234 118.753 62.7234 118.767V120.587C62.7227 120.601 62.7167 120.615 62.7065 120.625C62.6964 120.635 62.6829 120.641 62.6686 120.641Z" fill="white"/>
<path d="M62.51 119.195H62.4899C62.4832 119.192 62.4772 119.188 62.4722 119.183C62.4671 119.178 62.4631 119.172 62.4605 119.165C62.4578 119.159 62.4565 119.152 62.4565 119.145C62.4566 119.137 62.4582 119.13 62.461 119.124L62.6543 118.685L62.8677 118.93C62.8728 118.935 62.8769 118.941 62.8797 118.948C62.8825 118.954 62.8839 118.961 62.8839 118.968C62.8839 118.976 62.8825 118.983 62.8797 118.989C62.8769 118.996 62.8728 119.002 62.8677 119.007C62.8572 119.016 62.8439 119.021 62.8302 119.021C62.8164 119.021 62.8031 119.016 62.7927 119.007L62.6889 118.89L62.5648 119.175C62.5585 119.183 62.5501 119.189 62.5404 119.193C62.5307 119.197 62.5202 119.197 62.51 119.195Z" fill="white"/>
<path d="M56.8283 125.066L48.626 120.382V104.327L56.8283 109.008V125.066Z" fill="#E0E0E0"/>
<path d="M52.5161 108.446L53.3121 108.899V107.002L52.5161 106.546V108.446Z" fill="#F5F5F5"/>
<path d="M53.3121 107.003L61.5115 102.319L60.7184 101.865L52.5161 106.546L53.3121 107.003Z" fill="white"/>
<path d="M50.2958 117.321L52.8107 118.747C52.9563 118.841 53.0774 118.967 53.1641 119.116C53.2509 119.264 53.3007 119.431 53.3096 119.603V121.138C53.3096 121.451 53.0876 121.58 52.8107 121.423L50.2958 119.997C50.1498 119.903 50.0282 119.777 49.941 119.628C49.8538 119.48 49.8034 119.313 49.7939 119.141V117.606C49.7968 117.292 50.0189 117.164 50.2958 117.321Z" fill="#F5F5F5"/>
<path d="M50.0996 117.706L50.1948 117.76V119.466L50.0996 119.409V117.706Z" fill="#E0E0E0"/>
<path d="M50.4893 117.929L50.6537 118.023V119.729L50.4893 119.632V117.929Z" fill="#E0E0E0"/>
<path d="M50.8784 118.148L50.9736 118.205V119.908L50.8784 119.854V118.148Z" fill="#E0E0E0"/>
<path d="M51.1733 118.314L51.3637 118.429V120.132L51.1733 120.02V118.314Z" fill="#E0E0E0"/>
<path d="M51.6572 118.593L51.7524 118.647V120.353L51.6572 120.299V118.593Z" fill="#E0E0E0"/>
<path d="M51.9365 118.75L52.1413 118.87V120.576L51.9365 120.456V118.75Z" fill="#E0E0E0"/>
<path d="M52.4355 119.038L52.5307 119.092V120.798L52.4355 120.741V119.038Z" fill="#E0E0E0"/>
<path d="M52.6582 119.164L52.7043 119.19V120.896L52.6582 120.867V119.164Z" fill="#E0E0E0"/>
<path d="M52.2573 118.944L52.3064 118.973V120.679L52.2573 120.65V118.944Z" fill="#E0E0E0"/>
<path d="M51.4727 118.491L51.5217 118.52V120.223L51.4727 120.197V118.491Z" fill="#E0E0E0"/>
<path d="M51.0425 118.248L51.0915 118.274V119.98L51.0425 119.951V118.248Z" fill="#E0E0E0"/>
<path d="M50.7373 118.079L50.7834 118.105V119.811L50.7373 119.782V118.079Z" fill="#E0E0E0"/>
<path d="M50.3188 117.828L50.365 117.854V119.56L50.3188 119.531V117.828Z" fill="#E0E0E0"/>
<path d="M52.8223 119.26L52.9203 119.314V121.017L52.8223 120.963V119.26Z" fill="#E0E0E0"/>
<path d="M48.704 148.524L80.1808 166.496C80.5678 166.69 80.9956 166.791 81.4296 166.791C81.8635 166.791 82.2914 166.69 82.6784 166.496L151.645 127.13C152.335 126.736 152.335 126.097 151.645 125.703L120.168 107.732C119.782 107.537 119.354 107.435 118.92 107.435C118.485 107.435 118.057 107.537 117.671 107.732L48.704 147.098C48.0147 147.492 48.0147 148.131 48.704 148.524Z" fill="#455A64"/>
<path d="M65.7164 156.869C66.253 157.136 66.8457 157.276 67.4468 157.276C68.0479 157.276 68.6406 157.136 69.1773 156.869C70.1377 156.321 70.1377 155.442 69.1773 154.886C68.641 154.617 68.0482 154.477 67.4468 154.477C66.8455 154.477 66.2526 154.617 65.7164 154.886C64.756 155.442 64.756 156.327 65.7164 156.869Z" fill="#263238"/>
<path d="M80.772 166.496L49.2952 148.525C48.678 148.171 48.6146 147.623 49.102 147.229C48.7941 147.47 48.541 147.773 48.3591 148.117C48.1772 148.461 48.0707 148.839 48.0464 149.226V150.387C48.0701 150.816 48.1955 151.233 48.4124 151.605C48.6294 151.976 48.9318 152.292 49.2952 152.527L80.772 170.498C81.1569 170.697 81.5867 170.795 82.0208 170.783V166.793C81.5857 166.801 81.1558 166.699 80.772 166.496Z" fill="#37474F"/>
<path d="M151.642 131.129C152.006 130.895 152.309 130.58 152.527 130.208C152.745 129.836 152.87 129.419 152.894 128.99V127.829C152.87 127.441 152.764 127.062 152.581 126.718C152.399 126.374 152.145 126.072 151.835 125.832C152.326 126.226 152.262 126.773 151.645 127.124L82.678 166.496C82.2929 166.694 81.8632 166.792 81.4292 166.781V170.795C81.8632 170.806 82.2929 170.707 82.678 170.509L151.642 131.129Z" fill="#263238"/>
<path d="M85.3663 162.773L55.2392 145.56C54.8239 145.323 54.8239 144.938 55.2392 144.704L113.474 111.44C113.707 111.324 113.964 111.263 114.224 111.263C114.485 111.263 114.742 111.324 114.974 111.44L145.113 128.65C145.525 128.887 145.525 129.269 145.113 129.506L86.8544 162.773C86.6236 162.888 86.3688 162.947 86.1104 162.947C85.8519 162.947 85.5971 162.888 85.3663 162.773Z" fill="white"/>
<path d="M73.2276 153.162L76.7433 151.154L75.5723 150.486L72.0566 152.492L73.2276 153.162Z" fill="#39B7EB"/>
<path d="M115.403 129.078L118.919 127.07L117.745 126.402L114.232 128.411L115.403 129.078Z" fill="#39B7EB"/>
<path d="M122.433 125.064L125.948 123.056L124.777 122.389L121.262 124.394L122.433 125.064Z" fill="#39B7EB"/>
<path d="M133.715 118.033C133.851 118.1 134.002 118.135 134.154 118.135C134.307 118.135 134.458 118.1 134.594 118.033C134.647 118.015 134.693 117.981 134.726 117.936C134.758 117.891 134.776 117.837 134.776 117.782C134.776 117.726 134.758 117.672 134.726 117.627C134.693 117.582 134.647 117.548 134.594 117.531C134.458 117.462 134.307 117.426 134.154 117.426C134.002 117.426 133.851 117.462 133.715 117.531C133.662 117.548 133.616 117.582 133.583 117.627C133.551 117.672 133.533 117.726 133.533 117.782C133.533 117.837 133.551 117.891 133.583 117.936C133.616 117.981 133.662 118.015 133.715 118.033Z" fill="#263238"/>
<path d="M135.119 121.972C135.391 122.109 135.692 122.18 135.997 122.18C136.303 122.18 136.603 122.109 136.876 121.972C137.36 121.687 137.36 121.245 136.876 120.968C136.603 120.832 136.303 120.761 135.997 120.761C135.692 120.761 135.391 120.832 135.119 120.968C134.635 121.245 134.635 121.696 135.119 121.972Z" fill="#263238"/>
<path d="M133.879 120.227C134.202 120.041 134.185 119.733 133.841 119.537L128.073 116.236C127.888 116.138 127.681 116.084 127.47 116.08C127.26 116.076 127.051 116.122 126.862 116.213C126.539 116.399 126.556 116.707 126.899 116.904L132.685 120.204C132.868 120.299 133.072 120.351 133.279 120.355C133.486 120.359 133.692 120.315 133.879 120.227Z" fill="#263238"/>
<path d="M124.034 106.843L124.23 106.729C124.095 107.216 124.029 107.719 124.034 108.224V108.92C124.034 111.419 127.065 117.803 128.181 120.062C128.297 120.299 126.765 121.911 126.765 121.911L128.585 120.872C128.585 120.872 133.133 117.164 133.133 114.117V113.421C133.133 110.36 131.097 106.718 128.585 105.283C127.316 104.561 126.171 104.535 125.346 105.083L123.616 106.064L124.034 106.843ZM126.309 109.179C126.309 107.753 127.328 107.163 128.585 107.881C128.481 108.803 130.183 111.673 130.858 111.778C130.858 113.204 129.84 113.795 128.585 113.076C127.925 112.648 127.376 112.072 126.982 111.395C126.589 110.718 126.362 109.959 126.321 109.179H126.309Z" fill="#39B7EB"/>
<path d="M122.162 110.035C122.214 113.092 126.909 121.91 126.909 121.91C126.909 121.91 131.396 118.139 131.347 115.081V114.385C131.295 111.327 129.199 107.715 126.661 106.323C124.123 104.931 122.11 106.278 122.162 109.338V110.035ZM124.44 110.257C124.417 108.831 125.426 108.223 126.693 108.919C127.362 109.335 127.922 109.902 128.329 110.572C128.735 111.243 128.976 111.999 129.031 112.779C129.057 114.205 128.048 114.813 126.779 114.117C126.111 113.7 125.551 113.133 125.144 112.463C124.738 111.792 124.497 111.037 124.44 110.257Z" fill="#39B7EB"/>
<path opacity="0.1" d="M122.162 110.035C122.214 113.092 126.909 121.91 126.909 121.91C126.909 121.91 131.396 118.139 131.347 115.081V114.385C131.295 111.327 129.199 107.715 126.661 106.323C124.123 104.931 122.11 106.278 122.162 109.338V110.035ZM124.44 110.257C124.417 108.831 125.426 108.223 126.693 108.919C127.362 109.335 127.922 109.902 128.329 110.572C128.735 111.243 128.976 111.999 129.031 112.779C129.057 114.205 128.048 114.813 126.779 114.117C126.111 113.7 125.551 113.133 125.144 112.463C124.738 111.792 124.497 111.037 124.44 110.257Z" fill="black"/>
<path d="M78.1759 150.817C81.0917 152.477 87.927 151.271 93.4442 148.119L108.6 139.467C114.117 136.315 116.223 132.418 113.301 130.761C110.38 129.103 103.538 130.316 98.0155 133.465L82.8885 142.105C77.3741 145.255 75.263 149.166 78.1759 150.817Z" fill="#F0F0F0"/>
<path d="M122.303 78.2853H122.318L124.812 76.859H124.833C126.404 76.0716 128.504 76.2884 130.765 77.7433C135.31 80.6358 138.78 87.3109 138.518 92.6481C138.385 95.3095 137.364 97.1352 135.786 97.9396H135.772L133.274 99.3659H133.257C131.685 100.156 129.583 99.9365 127.319 98.4845C122.776 95.5891 119.307 88.9169 119.569 83.5797C119.708 80.9154 120.743 79.0897 122.303 78.2853Z" fill="#37474F"/>
<path d="M133.401 99.2917L135.78 97.9224H135.798C137.361 97.1151 138.393 95.2895 138.526 92.6309C138.641 90.2518 138.015 87.6075 136.885 85.1514L134.387 86.5777C135.521 89.0337 136.147 91.6781 136.028 94.06C135.904 96.6559 134.912 98.4616 133.401 99.2917Z" fill="#263238"/>
<path d="M127.33 98.4813C122.788 95.5859 119.318 88.9137 119.581 83.5765C119.843 78.2393 123.745 76.2567 128.279 79.1492C132.813 82.0418 136.294 88.7168 136.032 94.054C135.769 99.3913 131.873 101.374 127.33 98.4813Z" fill="#455A64"/>
<path d="M131.137 98.1043C133.816 98.2327 134.252 95.2517 134.309 93.968C134.54 89.2613 131.35 83.1282 127.344 80.5751C126.491 79.9837 125.497 79.6202 124.46 79.5196C121.784 79.3913 121.348 82.3722 121.288 83.6559C121.057 88.3627 124.244 94.4958 128.253 97.0631C129.106 97.6545 130.1 98.018 131.137 98.1186V98.1043Z" fill="#FAFAFA"/>
<path d="M127.281 89.6979C127.313 89.698 127.344 89.6921 127.374 89.6808C127.434 89.6614 127.486 89.623 127.522 89.5714C127.558 89.5199 127.576 89.4581 127.573 89.3955V82.5978C127.573 82.5221 127.542 82.4495 127.488 82.3961C127.434 82.3426 127.361 82.3125 127.284 82.3125C127.208 82.3125 127.134 82.3426 127.08 82.3961C127.026 82.4495 126.996 82.5221 126.996 82.5978V88.5682L123.786 84.489C123.738 84.4285 123.669 84.3891 123.592 84.3795C123.515 84.3698 123.437 84.3908 123.376 84.4377C123.315 84.4846 123.275 84.5536 123.266 84.6296C123.256 84.7055 123.277 84.7822 123.324 84.8428L127.059 89.5866C127.086 89.6204 127.119 89.6479 127.158 89.6672C127.196 89.6864 127.238 89.6969 127.281 89.6979Z" fill="#37474F"/>
<path d="M128.937 94.7276C128.95 94.7303 128.964 94.7303 128.977 94.7276C129.008 94.7184 129.033 94.6978 129.049 94.6701C129.065 94.6425 129.069 94.6099 129.061 94.5793L127.443 89.1908C127.434 89.1601 127.412 89.1343 127.384 89.1191C127.356 89.1038 127.322 89.1004 127.291 89.1095C127.26 89.1185 127.234 89.1394 127.219 89.1675C127.203 89.1956 127.2 89.2286 127.209 89.2592L128.824 94.6478C128.832 94.6709 128.848 94.6909 128.868 94.7052C128.888 94.7195 128.912 94.7273 128.937 94.7276Z" fill="#39B7EB"/>
<path d="M127.373 88.0474C126.837 87.7079 126.378 87.9418 126.35 88.5694C126.351 88.9117 126.435 89.2487 126.593 89.5531C126.752 89.8575 126.98 90.1205 127.261 90.3209C127.795 90.6632 128.253 90.4293 128.285 89.8017C128.282 89.4591 128.199 89.1219 128.04 88.8172C127.882 88.5125 127.654 88.2488 127.373 88.0474Z" fill="#39B7EB"/>
<path d="M80.2588 149.15L83.7716 147.142L82.6007 146.475L79.0879 148.48L80.2588 149.15Z" fill="#0007B0"/>
<path d="M87.2867 145.137L90.8023 143.128L89.6285 142.461L86.1157 144.466L87.2867 145.137Z" fill="#0007B0"/>
<path d="M85.8426 144.319C85.8426 145.997 84.6543 148.028 83.1863 148.883C82.4048 149.331 81.701 149.346 81.2165 149.009C81.0212 148.857 80.8607 148.666 80.7459 148.448C80.631 148.23 80.5643 147.991 80.5503 147.745C80.6489 147.7 80.7452 147.649 80.8387 147.594C82.3067 146.758 83.4949 144.719 83.4949 143.03C83.4963 142.905 83.4886 142.78 83.4719 142.656C83.6919 142.541 83.9337 142.472 84.182 142.455C84.4302 142.437 84.6795 142.471 84.9139 142.553C85.4907 142.793 85.8426 143.412 85.8426 144.319Z" fill="#263238"/>
<path d="M86.0817 140.873L86.0327 140.844C85.2944 140.456 84.3023 140.527 83.1861 141.161C80.9221 142.453 79.085 145.596 79.085 148.184C79.085 149.485 79.5493 150.394 80.2992 150.817C81.049 151.239 82.0613 151.168 83.1832 150.531C85.4472 149.239 87.2815 146.093 87.2815 143.505C87.2844 142.205 86.8287 141.295 86.0817 140.873ZM83.1977 148.877C82.4132 149.325 81.7095 149.339 81.2249 149C80.7981 148.714 80.5385 148.144 80.5385 147.359C80.5385 145.685 81.7297 143.651 83.1977 142.795C83.8668 142.413 84.4753 142.347 84.9281 142.544C85.4876 142.781 85.8395 143.4 85.8395 144.313C85.8424 146.002 84.6541 148.041 83.1861 148.883L83.1977 148.877Z" fill="#37474F"/>
<path d="M85.064 142.62L85.0323 142.603C84.5535 142.349 83.9046 142.398 83.1865 142.806C81.7185 143.644 80.5273 145.684 80.5273 147.37C80.5273 148.226 80.8158 148.796 81.3147 149.081C81.8136 149.367 82.4683 149.31 83.1865 148.893C84.6545 148.054 85.8427 146.015 85.8427 144.329C85.8427 143.485 85.5456 142.891 85.064 142.62ZM83.1865 148.283C82.5577 148.642 81.9925 148.654 81.6002 148.38C81.2599 148.143 81.0494 147.689 81.0494 147.062C81.0898 146.329 81.3043 145.615 81.6756 144.979C82.0469 144.343 82.5645 143.803 83.1865 143.402C83.3885 143.262 83.6207 143.171 83.8645 143.136C84.1083 143.101 84.3571 143.123 84.591 143.199C85.0409 143.39 85.3236 143.887 85.3236 144.626C85.2834 145.359 85.0689 146.072 84.6976 146.707C84.3262 147.343 83.8085 147.882 83.1865 148.283Z" fill="#0007B0"/>
<path d="M94.316 141.12L97.8316 139.115L96.6607 138.444L93.145 140.453L94.316 141.12Z" fill="#0007B0"/>
<path d="M101.347 137.106L104.86 135.101L103.689 134.431L100.173 136.439L101.347 137.106Z" fill="#0007B0"/>
<path d="M108.375 133.093L111.888 131.087L110.717 130.417L107.202 132.425L108.375 133.093Z" fill="#0007B0"/>
<path d="M90.884 114.429C90.9207 114.38 90.9722 114.345 91.0308 114.327C91.0895 114.309 91.1523 114.31 91.2101 114.33C91.268 114.35 91.3179 114.388 91.3526 114.438C91.3873 114.488 91.405 114.548 91.4031 114.608C91.4257 114.771 91.4089 114.936 91.3543 115.091C91.2996 115.246 91.2086 115.385 91.0888 115.498C90.858 115.695 90.6244 115.615 90.5696 115.319C90.5473 115.156 90.5642 114.991 90.6188 114.836C90.6734 114.682 90.7643 114.542 90.884 114.429Z" fill="#0007B0"/>
<path d="M93.5889 115.689L91.2384 114.346L90.7222 115.575L93.0813 116.922L93.5889 115.689Z" fill="#0007B0"/>
<path d="M93.2282 115.766C93.4589 115.572 93.6896 115.652 93.7473 115.948C93.7686 116.111 93.7509 116.275 93.6958 116.43C93.6407 116.584 93.5496 116.723 93.4301 116.836C93.1993 117.032 92.9657 116.953 92.9109 116.656C92.8899 116.493 92.9076 116.328 92.9627 116.174C93.0178 116.019 93.1087 115.879 93.2282 115.766Z" fill="#0007B0"/>
<path d="M111.294 127.016C111.294 127.073 111.294 127.125 111.294 127.182C111.294 127.296 111.294 127.413 111.294 127.53C110.827 127.333 110.219 127.399 109.549 127.781C108.081 128.62 106.89 130.659 106.89 132.345C106.89 133.127 107.15 133.691 107.577 133.985C107.457 134.07 107.333 134.148 107.205 134.219L107.069 134.288L106.663 135.802L104.309 134.504C103.565 134.079 103.106 133.172 103.106 131.877C103.106 129.29 104.941 126.146 107.205 124.851C108.324 124.212 109.336 124.147 110.089 124.566L112.396 125.844L112.445 125.872L111.294 127.016Z" fill="#455A64"/>
<path d="M112.442 125.847L112.393 125.819C111.655 125.431 110.663 125.502 109.546 126.135C107.282 127.427 105.445 130.571 105.445 133.158C105.445 134.459 105.91 135.369 106.66 135.791C107.409 136.213 108.422 136.142 109.544 135.506C111.808 134.214 113.642 131.067 113.642 128.48C113.651 127.179 113.186 126.269 112.442 125.847ZM109.558 133.852C108.774 134.299 108.07 134.314 107.585 133.974C107.158 133.689 106.899 133.118 106.899 132.334C106.899 130.659 108.09 128.626 109.558 127.77C110.227 127.388 110.836 127.322 111.303 127.519C111.862 127.756 112.214 128.375 112.214 129.287C112.208 130.976 111.014 133.016 109.546 133.852H109.558Z" fill="#37474F"/>
<path d="M112.208 129.3C112.208 130.977 111.02 133.008 109.552 133.864C108.77 134.312 108.067 134.326 107.582 133.989C107.387 133.838 107.226 133.646 107.112 133.428C106.997 133.211 106.93 132.971 106.916 132.726C107.015 132.68 107.111 132.63 107.204 132.574C108.672 131.739 109.861 129.699 109.861 128.01C109.862 127.885 109.854 127.76 109.838 127.637C110.058 127.522 110.299 127.453 110.548 127.435C110.796 127.418 111.045 127.451 111.28 127.534C111.851 127.774 112.208 128.387 112.208 129.3Z" fill="#263238"/>
<path d="M111.424 127.596L111.392 127.576C110.913 127.325 110.262 127.371 109.546 127.782C108.078 128.62 106.887 130.657 106.887 132.346C106.887 133.202 107.176 133.772 107.675 134.057C108.174 134.343 108.828 134.283 109.546 133.866C111.014 133.031 112.203 130.991 112.203 129.302C112.208 128.461 111.92 127.87 111.424 127.596ZM109.546 133.256C108.915 133.618 108.349 133.63 107.96 133.356C107.617 133.119 107.409 132.665 107.409 132.038C107.45 131.305 107.664 130.591 108.035 129.955C108.407 129.319 108.924 128.779 109.546 128.378C110.083 128.07 110.573 128.016 110.948 128.175C111.398 128.367 111.681 128.863 111.681 129.602C111.64 130.334 111.426 131.046 111.055 131.681C110.685 132.316 110.168 132.856 109.546 133.256Z" fill="#0007B0"/>
<path d="M107.202 130.153L113.835 126.364C114.605 125.922 112.105 123.341 110.244 123.167C109.22 123.044 108.181 123.141 107.199 123.452C107.199 123.452 108.615 125.246 108.373 126.264C108.13 127.283 107.202 130.153 107.202 130.153Z" fill="#0007B0"/>
<path d="M97.831 119.446C97.831 119.446 107.447 124.244 107.862 124.532C108.277 124.821 107.862 128.167 107.201 130.152C106.541 132.137 105.526 135.19 105.119 136.046C104.712 136.901 104.182 137.221 103.207 137.777L96.2852 141.734L86.9148 142.863L83.1943 140.866L84.1634 134.845C84.1634 134.845 94.1221 129.604 95.4863 128.826C96.8504 128.047 100.885 124.393 97.831 119.446Z" fill="#0007B0"/>
<path opacity="0.2" d="M97.831 119.446C97.831 119.446 107.447 124.244 107.862 124.532C108.277 124.821 107.862 128.167 107.201 130.152C106.541 132.137 105.526 135.19 105.119 136.046C104.712 136.901 104.182 137.221 103.207 137.777L96.2852 141.734L86.9148 142.863L83.1943 140.866L84.1634 134.845C84.1634 134.845 94.1221 129.604 95.4863 128.826C96.8504 128.047 100.885 124.393 97.831 119.446Z" fill="black"/>
<path d="M108.047 129.008C108.912 126.709 109.558 124.803 109.448 123.516C109.316 121.99 108.739 120.744 106.195 120.116C103.651 119.489 100.095 119.5 100.095 119.5L99.0137 120.119C99.0137 120.119 106.328 124.312 107.158 124.769C107.666 125.054 108.208 126.312 107.213 130.154L107.383 130.251C107.467 130.303 107.77 129.747 108.047 129.008Z" fill="#0007B0"/>
<path opacity="0.3" d="M108.047 129.008C108.912 126.709 109.558 124.803 109.448 123.516C109.316 121.99 108.739 120.744 106.195 120.116C103.651 119.489 100.095 119.5 100.095 119.5L99.0137 120.119C99.0137 120.119 106.328 124.312 107.158 124.769C107.666 125.054 108.208 126.312 107.213 130.154L107.383 130.251C107.467 130.303 107.77 129.747 108.047 129.008Z" fill="white"/>
<path d="M102.507 122.122L103.689 121.454C103.689 121.454 103.62 117.401 101.895 116.417C100.171 115.432 94.316 116.103 94.316 116.103L93.145 116.77L102.507 122.122Z" fill="#0007B0"/>
<path d="M98.6708 117.344C98.1084 117.666 98.1084 118.186 98.6708 118.505C98.9862 118.664 99.335 118.747 99.6889 118.747C100.043 118.747 100.392 118.664 100.707 118.505C101.266 118.186 101.266 117.664 100.707 117.344C100.391 117.187 100.043 117.104 99.6889 117.104C99.3353 117.104 98.9866 117.187 98.6708 117.344Z" fill="#F0F0F0"/>
<path d="M100.47 119.281C100.075 119.509 100.075 119.877 100.47 120.103C100.693 120.216 100.94 120.274 101.191 120.274C101.442 120.274 101.689 120.216 101.912 120.103C102.31 119.877 102.31 119.509 101.912 119.281C101.689 119.169 101.442 119.111 101.191 119.111C100.941 119.111 100.694 119.169 100.47 119.281Z" fill="#F0F0F0"/>
<path d="M95.9396 116.827C95.5416 117.052 95.5416 117.42 95.9396 117.649C96.1632 117.76 96.4102 117.818 96.6606 117.818C96.9111 117.818 97.158 117.76 97.3817 117.649C97.7797 117.42 97.7797 117.052 97.3817 116.827C97.1585 116.714 96.9113 116.655 96.6606 116.655C96.4099 116.655 96.1628 116.714 95.9396 116.827Z" fill="#F0F0F0"/>
<path d="M102.691 120.947C102.922 120.75 103.152 120.83 103.21 121.126C103.231 121.289 103.214 121.454 103.159 121.609C103.103 121.763 103.012 121.903 102.893 122.016C102.856 122.065 102.805 122.101 102.746 122.118C102.687 122.136 102.625 122.135 102.567 122.115C102.509 122.095 102.459 122.057 102.424 122.007C102.389 121.957 102.372 121.897 102.374 121.837C102.351 121.674 102.369 121.509 102.424 121.354C102.479 121.199 102.571 121.06 102.691 120.947Z" fill="#0007B0"/>
<path d="M105.382 122.208L103.029 120.864L102.515 122.094L104.871 123.437L105.382 122.208Z" fill="#0007B0"/>
<path d="M105.018 122.285C105.055 122.237 105.106 122.201 105.165 122.183C105.224 122.166 105.286 122.167 105.344 122.187C105.402 122.207 105.452 122.245 105.487 122.295C105.521 122.345 105.539 122.404 105.537 122.465C105.559 122.627 105.542 122.793 105.487 122.948C105.432 123.102 105.34 123.242 105.22 123.355C104.989 123.552 104.758 123.469 104.701 123.175C104.679 123.013 104.697 122.847 104.752 122.693C104.807 122.538 104.898 122.398 105.018 122.285Z" fill="#0007B0"/>
<path d="M105.018 122.285C105.055 122.237 105.106 122.201 105.165 122.183C105.224 122.166 105.286 122.167 105.344 122.187C105.402 122.207 105.452 122.245 105.487 122.295C105.521 122.345 105.539 122.404 105.537 122.465C105.559 122.627 105.542 122.793 105.487 122.948C105.432 123.102 105.34 123.242 105.22 123.355C104.989 123.552 104.758 123.469 104.701 123.175C104.679 123.013 104.697 122.847 104.752 122.693C104.807 122.538 104.898 122.398 105.018 122.285Z" fill="black"/>
<path d="M84.9337 142.036C84.9337 142.093 84.9337 142.144 84.9337 142.201C84.9337 142.315 84.9337 142.432 84.9337 142.549C84.4665 142.353 83.858 142.418 83.2033 142.8C81.7353 143.639 80.5442 145.679 80.5442 147.365C80.5442 148.146 80.8037 148.711 81.2306 149.005C81.1107 149.089 80.9866 149.167 80.8585 149.239L80.723 149.307L80.3163 150.822L77.9629 149.524C77.2188 149.099 76.7603 148.192 76.7603 146.897C76.7603 144.309 78.5945 141.166 80.8585 139.871C81.9775 139.232 82.9899 139.166 83.7426 139.586L86.0499 140.863L86.0989 140.892L84.9337 142.036Z" fill="#455A64"/>
<path d="M77.9136 137.509L76.1572 143.531L79.6729 145.539L81.4928 139.554L77.9136 137.509Z" fill="#0007B0"/>
<path opacity="0.2" d="M77.9136 137.509L76.1572 143.531L79.6729 145.539L81.4928 139.554L77.9136 137.509Z" fill="black"/>
<path d="M77.9141 137.509C77.9141 137.509 79.907 139.183 81.4932 139.554C83.5755 140.053 86.8864 140.107 88.0602 140.187C89.8541 140.31 91.2097 140.307 91.8441 140.082C92.6661 139.797 94.8753 138.527 95.4867 138.179C96.6577 137.512 97.1566 134.884 93.9293 134.165C91.7472 133.718 89.5244 133.494 87.296 133.495L77.9141 137.509Z" fill="#0007B0"/>
<path d="M97.788 136.739C97.6877 136.987 97.6199 137.247 97.5861 137.512C97.4932 137.788 97.4714 138.082 97.5227 138.368C97.7425 138.728 98.0885 138.995 98.4946 139.118C98.7872 139.183 99.09 139.187 99.3843 139.13C99.6785 139.074 99.9578 138.958 100.205 138.79C100.802 138.436 101.252 138.009 102.1 137.769C102.706 137.642 103.277 137.386 103.772 137.019C104.243 136.645 104.871 135.612 103.971 135.373C103.072 135.133 101.116 135.977 99.3339 136.055L97.788 136.739Z" fill="#37474F"/>
<path d="M97.7881 135.637V136.955C97.8427 137.103 97.9375 137.233 98.0622 137.331C98.1869 137.429 98.3365 137.492 98.4947 137.511C98.6395 137.532 98.7874 137.516 98.9244 137.465C99.1405 137.384 99.3277 137.241 99.4629 137.056C99.5982 136.87 99.6757 136.65 99.6858 136.421L99.7377 135.637H97.7881Z" fill="#FFA8A7"/>
<path d="M100.326 127.487C100.326 129.128 99.859 136.219 99.859 136.219C99.859 136.219 99.1812 137.075 97.7075 136.219L97.2114 128.295L100.326 127.487Z" fill="#37474F"/>
<path d="M92.5967 134.477L97.2113 131.847C97.4004 131.749 97.5587 131.601 97.6692 131.42C97.7797 131.24 97.8381 131.032 97.8381 130.821C97.8381 130.61 97.7797 130.403 97.6692 130.222C97.5587 130.041 97.4004 129.894 97.2113 129.796L93.7735 127.833C93.5799 127.736 93.366 127.686 93.149 127.686C92.9321 127.686 92.7182 127.736 92.5246 127.833L87.9101 130.463C87.7219 130.562 87.5644 130.71 87.4545 130.89C87.3447 131.071 87.2866 131.278 87.2866 131.489C87.2866 131.699 87.3447 131.906 87.4545 132.087C87.5644 132.268 87.7219 132.415 87.9101 132.514L91.3479 134.477C91.5415 134.574 91.7554 134.624 91.9723 134.624C92.1893 134.624 92.4032 134.574 92.5967 134.477Z" fill="#0007B0"/>
<path d="M92.5967 134.477L97.2113 131.847C97.4004 131.749 97.5587 131.601 97.6692 131.42C97.7797 131.24 97.8381 131.032 97.8381 130.821C97.8381 130.61 97.7797 130.403 97.6692 130.222C97.5587 130.041 97.4004 129.894 97.2113 129.796L93.7735 127.833C93.5799 127.736 93.366 127.686 93.149 127.686C92.9321 127.686 92.7182 127.736 92.5246 127.833L87.9101 130.463C87.7219 130.562 87.5644 130.71 87.4545 130.89C87.3447 131.071 87.2866 131.278 87.2866 131.489C87.2866 131.699 87.3447 131.906 87.4545 132.087C87.5644 132.268 87.7219 132.415 87.9101 132.514L91.3479 134.477C91.5415 134.574 91.7554 134.624 91.9723 134.624C92.1893 134.624 92.4032 134.574 92.5967 134.477Z" fill="white"/>
<path d="M87.9102 131.176L91.348 133.139C91.5416 133.236 91.7555 133.286 91.9724 133.286C92.1894 133.286 92.4033 133.236 92.5969 133.139L97.2114 130.509C97.2867 130.484 97.3521 130.436 97.3985 130.372C97.4448 130.308 97.4697 130.231 97.4697 130.152C97.4697 130.074 97.4448 129.997 97.3985 129.933C97.3521 129.869 97.2867 129.821 97.2114 129.796L93.7736 127.833C93.58 127.736 93.3661 127.686 93.1491 127.686C92.9322 127.686 92.7183 127.736 92.5247 127.833L87.9102 130.463C87.8349 130.488 87.7695 130.536 87.7231 130.6C87.6768 130.664 87.6519 130.741 87.6519 130.82C87.6519 130.898 87.6768 130.975 87.7231 131.039C87.7695 131.103 87.8349 131.151 87.9102 131.176Z" fill="#0007B0"/>
<path d="M90.722 113.718L90.1365 116.106L87.6216 116.257L88.1638 112.948L90.722 113.718Z" fill="#FFA8A7"/>
<path d="M93.1737 111.921C93.1737 111.921 93.4621 112.931 93.3439 112.988C93.1623 113.015 92.9775 113.015 92.7959 112.988L93.1737 111.921Z" fill="#F28F8F"/>
<path d="M92.6921 108.697C93.0959 109.168 93.465 109.941 93.1795 111.835C92.868 113.906 92.4816 114.146 92.1701 114.345C91.7634 114.608 90.1368 114.468 89.6782 114.137C89.1274 113.741 88.2766 112.483 88.0747 111.242C87.8382 109.784 88.3314 108.167 89.4158 107.89C90.9415 107.499 92.3489 108.298 92.6921 108.697Z" fill="#FFA8A7"/>
<path d="M87.9096 113.618C88.299 114.018 89.0978 114.126 89.5997 114.217C90.1015 114.309 91.6445 114.409 92.1002 113.322C92.5559 112.235 92.2444 111.453 92.8039 111.191C93.3634 110.928 93.9229 110.757 94.07 110.62C94.2171 110.483 94.22 108.695 92.7174 107.768C91.2148 106.841 88.9133 106.627 87.3991 108.507C86.2513 109.959 86.7214 112.392 87.9096 113.618Z" fill="#455A64"/>
<path d="M89.4243 114.231C89.8137 114.265 91.0452 114.074 91.4172 113.572C91.7893 113.07 91.9392 112.172 91.994 111.701C91.9991 111.515 92.0678 111.337 92.1889 111.196C92.31 111.054 92.4763 110.958 92.6602 110.922C93.0323 110.805 93.8543 110.406 93.8543 110.406V110.183C94.1193 110.167 94.3852 110.167 94.6503 110.183C94.8233 110.215 94.7281 110.469 94.2898 110.688C93.8514 110.908 92.6487 111.333 92.4641 111.478C92.2795 111.624 92.193 112.237 92.0459 112.89C91.8989 113.544 91.4432 114.519 89.4243 114.231Z" fill="#37474F"/>
<path d="M92.8851 116.933L94.3272 116.114C94.4656 115.701 94.2435 115.493 93.8513 115.518C93.4591 115.544 93.5802 115.167 93.3408 115.062C93.0265 114.919 92.8476 114.999 92.7063 114.933C92.565 114.868 92.5044 114.702 92.3199 114.682C91.495 114.605 90.9326 115.769 90.9326 115.769L92.8851 116.933Z" fill="#F28F8F"/>
<path d="M83.0972 127.408C83.0972 127.408 89.4681 124.284 90.5785 123.779C91.6888 123.274 93.4308 122.541 94.3566 122.541C94.7184 122.571 95.0572 122.728 95.311 122.985C95.5648 123.242 95.7164 123.58 95.7381 123.939C95.7501 124.489 95.7182 125.039 95.6429 125.585C93.8925 126.153 92.1038 126.598 90.2901 126.917C87.6396 127.373 83.0972 127.408 83.0972 127.408Z" fill="#37474F"/>
<path d="M83.789 125.603C83.789 126.898 83.665 128.244 84.2101 129.191C84.7551 130.138 87.7084 132.329 90.4887 131.87C92.3057 131.568 97.6989 129.111 97.6989 129.111C97.6989 129.111 100.315 128.162 100.326 127.486C100.344 126.49 100.274 125.086 97.9931 125.146C95.9136 125.201 89.7792 126.467 89.7792 126.467L83.789 125.603Z" fill="#455A64"/>
<path d="M85.5683 115.341C86.5547 114.323 87.2209 114.237 87.6939 114.363C88.7809 114.671 89.8333 115.087 90.8346 115.607C90.8346 115.607 90.4539 119.252 92.2565 120.302V125.984C92.2565 125.984 92.2017 126.601 91.4172 127.214C90.725 127.753 89.159 128.298 87.2901 128.144C85.0694 127.961 83.7888 125.602 83.7888 125.602C83.7888 125.602 83.7311 120.955 84.0455 119.11C84.4147 116.956 85.228 115.695 85.5683 115.341Z" fill="#455A64"/>
<path d="M92.2563 120.58C92.2563 120.58 91.1661 119.724 90.8345 118.611C90.8345 118.611 90.9643 120.357 92.2563 121.241V120.58Z" fill="#37474F"/>
<path d="M102.348 123.261C102.866 123.282 103.375 123.126 103.79 122.819C103.79 122.819 104.292 121.855 104.909 121.937C104.909 121.937 105.019 121.527 104.765 121.393C104.511 121.258 104.401 121.296 104.298 121.153C104.194 121.01 104.182 120.745 103.721 120.745C103.53 120.745 103.556 120.611 103.095 120.557C102.633 120.503 102.178 121.555 101.84 121.555L102.348 123.261Z" fill="#FFA8A7"/>
<path d="M90.8344 115.606C92.4178 115.849 92.9917 116.314 93.5685 116.842C94.1453 117.369 97.6755 120.872 97.6755 120.872L101.95 121.48C102.174 121.66 102.339 121.902 102.423 122.176C102.596 122.672 102.44 123.214 102.276 123.343C102.276 123.343 98.036 123.594 97.2025 123.437C96.369 123.28 92.2419 120.57 92.2419 120.57C91.8474 120.276 91.5165 119.906 91.2689 119.483C91.0212 119.061 90.8617 118.593 90.7998 118.108C90.5316 116.388 90.8344 115.606 90.8344 115.606Z" fill="#455A64"/>
<path d="M87.0333 130.674L80.4835 138.582C80.4108 138.591 80.3376 138.595 80.2643 138.596C80.0046 138.6 79.7479 138.54 79.5174 138.422L73.9857 135.261L73.6108 135.047C73.406 134.93 73.2358 134.451 73.2358 133.977V132.645C73.2356 131.277 73.5996 129.932 74.2911 128.747C74.9827 127.562 75.9774 126.578 77.1755 125.893L83.78 122.122L90.8085 126.136L87.0333 130.674Z" fill="#0007B0"/>
<g opacity="0.1">
<path d="M87.0337 130.672L80.484 138.58C80.4113 138.589 80.3381 138.593 80.2648 138.594C80.0051 138.598 79.7484 138.538 79.5178 138.42L73.9862 135.259L73.6113 135.045C73.4065 134.928 73.2363 134.449 73.2363 133.975V132.643C73.2361 131.275 73.6001 129.93 74.2916 128.745C74.9832 127.56 75.9779 126.576 77.176 125.891L83.7805 122.12L90.809 126.134L87.0337 130.672Z" fill="black"/>
</g>
<path d="M84.7748 133.401L90.7996 126.139L83.7711 122.125L77.1695 125.893C76.3155 126.382 75.5622 127.026 74.9487 127.79L84.7748 133.401Z" fill="#0007B0"/>
<path d="M90.7996 131.969C90.7996 132.443 90.6323 132.922 90.4246 133.039L90.0497 133.253L81.0052 138.419C80.8407 138.507 80.6604 138.562 80.4746 138.582C80.4019 138.591 80.3287 138.595 80.2554 138.596V136.659C80.2551 135.29 80.6194 133.945 81.3115 132.76C82.0036 131.575 82.9991 130.591 84.1979 129.907L84.9449 129.482L90.7996 126.136V131.969Z" fill="#0007B0"/>
<g opacity="0.2">
<path d="M90.8 131.97C90.8 132.444 90.6328 132.923 90.4251 133.04L90.0502 133.254L81.0057 138.42C80.8412 138.508 80.6609 138.563 80.475 138.583C80.4023 138.592 80.3291 138.596 80.2559 138.597V136.66C80.2556 135.291 80.6199 133.946 81.312 132.761C82.0041 131.576 82.9996 130.592 84.1984 129.908L84.9454 129.483L90.8 126.137V131.97Z" fill="black"/>
</g>
<path d="M92.7407 141.754L96.2795 141.742L101.344 138.85L96.3833 142.395L92.6484 142.447L92.7407 141.754Z" fill="#E0E0E0"/>
<path d="M84.1496 146.734C84.1496 146.734 90.5292 144.355 91.0714 144.075C91.7077 143.69 92.3115 143.254 92.8768 142.772C92.9922 142.621 93.0464 142.433 93.0288 142.244C93.0111 142.056 92.923 141.881 92.7816 141.753C92.7816 141.753 90.186 141.636 89.5198 141.839C89.1477 141.95 83.1431 143.856 83.1431 143.856L84.1496 146.734Z" fill="#E0E0E0"/>
<path d="M83.8637 144.075C83.3359 143.628 82.8053 143.813 82.6755 144.486C82.6259 144.858 82.6656 145.235 82.7914 145.589C82.9172 145.942 83.1255 146.261 83.3994 146.52C83.9272 146.968 84.4578 146.785 84.5876 146.109C84.637 145.738 84.5971 145.36 84.4714 145.007C84.3456 144.654 84.1374 144.334 83.8637 144.075Z" fill="#455A64"/>
</svg>
