<svg width="20" height="20" viewBox="0 0 20 20" fill="none" xmlns="http://www.w3.org/2000/svg">
<path d="M14.275 17.25L17.75 13.8L16.7 12.75L14.275 15.125L13.3 14.15L12.25 15.225L14.275 17.25ZM3 6H15V4H3V6ZM15 20C13.6167 20 12.4377 19.5123 11.463 18.537C10.4883 17.5617 10.0007 16.3827 10 15C10 13.6167 10.4877 12.4377 11.463 11.463C12.4383 10.4883 13.6173 10.0007 15 10C16.3833 10 17.5627 10.4877 18.538 11.463C19.5133 12.4383 20.0007 13.6173 20 15C20 16.3833 19.5123 17.5627 18.537 18.538C17.5617 19.5133 16.3827 20.0007 15 20ZM0 19V2C0 1.45 0.196 0.979333 0.588 0.588C0.98 0.196667 1.45067 0.000666667 2 0H16C16.55 0 17.021 0.196 17.413 0.588C17.805 0.98 18.0007 1.45067 18 2V8.675C17.5333 8.44167 17.0457 8.27067 16.537 8.162C16.0283 8.05333 15.516 7.99933 15 8H3V10H10.1C9.81667 10.2833 9.55433 10.5917 9.313 10.925C9.07167 11.2583 8.859 11.6167 8.675 12H3V14H8.075C8.04167 14.1667 8.021 14.3293 8.013 14.488C8.005 14.6467 8.00067 14.8173 8 15C8 15.7 8.096 16.371 8.288 17.013C8.48 17.655 8.76733 18.2673 9.15 18.85L9 19L7.5 17.5L6 19L4.5 17.5L3 19L1.5 17.5L0 19Z" fill="#0007B0"/>
</svg>
