<svg width="26" height="20" viewBox="0 0 26 20" fill="none" xmlns="http://www.w3.org/2000/svg">
<path d="M2.77273 0.90918H18.6818V5.45463H22.0909L25.5 10.0001V15.6819H23.2273C23.2273 16.5861 22.8681 17.4532 22.2288 18.0925C21.5894 18.7318 20.7223 19.091 19.8182 19.091C18.914 19.091 18.0469 18.7318 17.4076 18.0925C16.7683 17.4532 16.4091 16.5861 16.4091 15.6819H9.59091C9.59091 16.5861 9.23174 17.4532 8.59241 18.0925C7.95308 18.7318 7.08597 19.091 6.18182 19.091C5.27767 19.091 4.41056 18.7318 3.77123 18.0925C3.1319 17.4532 2.77273 16.5861 2.77273 15.6819H0.5V3.18191C0.5 2.57914 0.739447 2.00107 1.16567 1.57485C1.59189 1.14863 2.16996 0.90918 2.77273 0.90918ZM18.6818 7.15918V10.0001H23.7614L21.5227 7.15918H18.6818ZM6.18182 13.9774C5.72974 13.9774 5.29619 14.1569 4.97652 14.4766C4.65686 14.7963 4.47727 15.2298 4.47727 15.6819C4.47727 16.134 4.65686 16.5675 4.97652 16.8872C5.29619 17.2069 5.72974 17.3865 6.18182 17.3865C6.63389 17.3865 7.06745 17.2069 7.38711 16.8872C7.70678 16.5675 7.88636 16.134 7.88636 15.6819C7.88636 15.2298 7.70678 14.7963 7.38711 14.4766C7.06745 14.1569 6.63389 13.9774 6.18182 13.9774ZM19.8182 13.9774C19.3661 13.9774 18.9326 14.1569 18.6129 14.4766C18.2932 14.7963 18.1136 15.2298 18.1136 15.6819C18.1136 16.134 18.2932 16.5675 18.6129 16.8872C18.9326 17.2069 19.3661 17.3865 19.8182 17.3865C20.2703 17.3865 20.7038 17.2069 21.0235 16.8872C21.3431 16.5675 21.5227 16.134 21.5227 15.6819C21.5227 15.2298 21.3431 14.7963 21.0235 14.4766C20.7038 14.1569 20.2703 13.9774 19.8182 13.9774ZM8.45455 12.2728L15.2727 5.45463L13.6705 3.841L8.45455 9.05691L6.07955 6.68191L4.47727 8.29554L8.45455 12.2728Z" fill="white"/>
</svg>
