<svg width="18" height="16" viewBox="0 0 18 16" fill="none" xmlns="http://www.w3.org/2000/svg">
<path d="M10.6667 4.66732V3.00065C10.6667 2.55862 10.4911 2.1347 10.1785 1.82214C9.86595 1.50958 9.44203 1.33398 9 1.33398H3.16667C2.72464 1.33398 2.30072 1.50958 1.98816 1.82214C1.67559 2.1347 1.5 2.55862 1.5 3.00065V13.0006C1.5 13.4427 1.67559 13.8666 1.98816 14.1792C2.30072 14.4917 2.72464 14.6673 3.16667 14.6673H9C9.44203 14.6673 9.86595 14.4917 10.1785 14.1792C10.4911 13.8666 10.6667 13.4427 10.6667 13.0006V11.334" stroke="#0B1739" stroke-width="2" stroke-linecap="round" stroke-linejoin="round"/>
<path d="M6.5 8H16.5M16.5 8L14 5.5M16.5 8L14 10.5" stroke="#0B1739" stroke-width="2" stroke-linecap="round" stroke-linejoin="round"/>
</svg>
