<svg width="26" height="30" viewBox="0 0 26 30" fill="none" xmlns="http://www.w3.org/2000/svg">
<path d="M22.8182 1H3.18182C2.60316 1 2.04821 1.22692 1.63904 1.63085C1.22987 2.03477 1 2.58261 1 3.15385V26.8462C1 27.4174 1.22987 27.9652 1.63904 28.3692C2.04821 28.7731 2.60316 29 3.18182 29H22.8182C23.3968 29 23.9518 28.7731 24.361 28.3692C24.7701 27.9652 25 27.4174 25 26.8462V3.15385C25 2.58261 24.7701 2.03477 24.361 1.63085C23.9518 1.22692 23.3968 1 22.8182 1Z" stroke="#00068D" stroke-width="1.8" stroke-linecap="round" stroke-linejoin="round"/>
<path d="M19.456 17H17.6211C16.0175 17 14.4356 16.6269 13 15.9091C11.5652 15.1917 9.98307 14.8182 8.37891 14.8182H6.54618M1 5H25M19.5455 15.9091C19.5455 16.7687 19.3762 17.6198 19.0472 18.4139C18.7183 19.2081 18.2361 19.9296 17.6283 20.5374C17.0205 21.1452 16.299 21.6274 15.5048 21.9563C14.7107 22.2852 13.8596 22.4545 13 22.4545C12.1404 22.4545 11.2893 22.2852 10.4952 21.9563C9.70103 21.6274 8.97947 21.1452 8.37167 20.5374C7.76386 19.9296 7.28173 19.2081 6.95279 18.4139C6.62385 17.6198 6.45455 16.7687 6.45455 15.9091C6.45455 14.1731 7.14415 12.5083 8.37167 11.2808C9.59918 10.0532 11.264 9.36364 13 9.36364C14.736 9.36364 16.4008 10.0532 17.6283 11.2808C18.8558 12.5083 19.5455 14.1731 19.5455 15.9091Z" stroke="#00068D" stroke-width="1.8" stroke-linecap="round" stroke-linejoin="round"/>
</svg>
