<svg width="16" height="18" viewBox="0 0 16 18" fill="none" xmlns="http://www.w3.org/2000/svg">
<path d="M10.6852 15.7105C10.6853 16.162 10.5147 16.5968 10.2077 16.9279C9.90059 17.2589 9.47969 17.4617 9.02935 17.4955L8.8951 17.5H7.10504C6.65343 17.5001 6.21845 17.3296 5.88731 17.0227C5.55616 16.7157 5.35333 16.2949 5.31946 15.8447L5.31498 15.7105H10.6852ZM8.00007 0.5C9.62453 0.499973 11.1855 1.13069 12.3537 2.25912C13.5219 3.38754 14.206 4.92545 14.2617 6.54842L14.2653 6.76316V10.1309L15.896 13.3914C15.9672 13.5336 16.0028 13.691 15.9998 13.85C15.9968 14.0091 15.9553 14.165 15.8789 14.3045C15.8024 14.444 15.6933 14.5629 15.5608 14.651C15.4283 14.7391 15.2765 14.7938 15.1182 14.8104L15.0153 14.8158H0.984824C0.825656 14.8158 0.668849 14.7773 0.52784 14.7035C0.386832 14.6297 0.265827 14.5228 0.175195 14.392C0.0845627 14.2612 0.0270053 14.1104 0.00745503 13.9525C-0.0120952 13.7946 0.0069447 13.6343 0.0629431 13.4853L0.104114 13.3914L1.73486 10.1309V6.76316C1.73486 5.10207 2.39494 3.50901 3.5699 2.33444C4.74485 1.15987 6.33843 0.5 8.00007 0.5Z" fill="#0B1739"/>
</svg>
