<svg width="15" height="19" viewBox="0 0 15 19" fill="none" xmlns="http://www.w3.org/2000/svg">
<path fill-rule="evenodd" clip-rule="evenodd" d="M6.80813 18.7417C6.80813 18.7417 0 13.0486 0 7.44678C0 5.47177 0.790176 3.57765 2.1967 2.18111C3.60322 0.78457 5.51088 0 7.5 0C9.48912 0 11.3968 0.78457 12.8033 2.18111C14.2098 3.57765 15 5.47177 15 7.44678C15 13.0486 8.19187 18.7417 8.19187 18.7417C7.81313 19.088 7.18969 19.0842 6.80813 18.7417ZM7.5 10.7047C7.9309 10.7047 8.35758 10.6205 8.75568 10.4568C9.15378 10.293 9.5155 10.053 9.82019 9.75051C10.1249 9.44798 10.3666 9.08883 10.5315 8.69355C10.6964 8.29828 10.7812 7.87462 10.7812 7.44678C10.7812 7.01894 10.6964 6.59529 10.5315 6.20001C10.3666 5.80474 10.1249 5.44558 9.82019 5.14305C9.5155 4.84052 9.15378 4.60054 8.75568 4.43681C8.35758 4.27308 7.9309 4.18881 7.5 4.18881C6.62976 4.18881 5.79516 4.53206 5.17981 5.14305C4.56445 5.75404 4.21875 6.58272 4.21875 7.44678C4.21875 8.31085 4.56445 9.13952 5.17981 9.75051C5.79516 10.3615 6.62976 10.7047 7.5 10.7047Z" fill="#CC4851"/>
</svg>
