<svg width="16" height="14" viewBox="0 0 16 14" fill="none" xmlns="http://www.w3.org/2000/svg">
<path d="M14.7692 0H1.23077C0.904349 0 0.591298 0.12967 0.360484 0.360484C0.12967 0.591298 0 0.904349 0 1.23077V12.3077C0 12.6341 0.12967 12.9472 0.360484 13.178C0.591298 13.4088 0.904349 13.5385 1.23077 13.5385H14.7692C15.0957 13.5385 15.4087 13.4088 15.6395 13.178C15.8703 12.9472 16 12.6341 16 12.3077V1.23077C16 0.904349 15.8703 0.591298 15.6395 0.360484C15.4087 0.12967 15.0957 0 14.7692 0ZM4.12769 10.2815C4.01222 10.397 3.85561 10.4619 3.69231 10.4619C3.52901 10.4619 3.37239 10.397 3.25692 10.2815C3.14145 10.1661 3.07658 10.0095 3.07658 9.84615C3.07658 9.68285 3.14145 9.52624 3.25692 9.41077L5.89923 6.76923L3.25692 4.12769C3.14145 4.01222 3.07658 3.85561 3.07658 3.69231C3.07658 3.52901 3.14145 3.37239 3.25692 3.25692C3.37239 3.14145 3.52901 3.07658 3.69231 3.07658C3.85561 3.07658 4.01222 3.14145 4.12769 3.25692L7.20462 6.33385C7.26183 6.391 7.30722 6.45887 7.33819 6.53357C7.36916 6.60828 7.3851 6.68836 7.3851 6.76923C7.3851 6.8501 7.36916 6.93018 7.33819 7.00489C7.30722 7.07959 7.26183 7.14746 7.20462 7.20462L4.12769 10.2815ZM12.9231 10.4615H8C7.83679 10.4615 7.68026 10.3967 7.56486 10.2813C7.44945 10.1659 7.38462 10.0094 7.38462 9.84615C7.38462 9.68294 7.44945 9.52642 7.56486 9.41101C7.68026 9.2956 7.83679 9.23077 8 9.23077H12.9231C13.0863 9.23077 13.2428 9.2956 13.3582 9.41101C13.4736 9.52642 13.5385 9.68294 13.5385 9.84615C13.5385 10.0094 13.4736 10.1659 13.3582 10.2813C13.2428 10.3967 13.0863 10.4615 12.9231 10.4615Z" fill="#0B1739"/>
</svg>
