<svg width="21" height="17" viewBox="0 0 21 17" fill="none" xmlns="http://www.w3.org/2000/svg">
<path fill-rule="evenodd" clip-rule="evenodd" d="M0 14.6818C0 15.9615 1.005 17 2.247 17H18.753C19.995 17 21 15.9615 21 14.6818V11.5384C21.0002 11.3686 20.946 11.2035 20.846 11.0685C20.7459 10.9336 20.6055 10.8364 20.4465 10.7919C19.9584 10.655 19.5275 10.3564 19.2203 9.9422C18.9132 9.52802 18.7467 9.02125 18.7467 8.5C18.7467 7.97875 18.9132 7.47198 19.2203 7.0578C19.5275 6.64362 19.9584 6.34504 20.4465 6.20809C20.6055 6.16361 20.7459 6.06639 20.846 5.93147C20.946 5.79654 21.0002 5.63143 21 5.46164V2.31818C21 1.03855 19.995 0 18.753 0H2.247C1.005 0 0 1.03855 0 2.31818V5.45545C0.000199434 5.62606 0.0551918 5.7918 0.156401 5.92683C0.257609 6.06185 0.399344 6.15858 0.5595 6.20191C1.05281 6.33482 1.48944 6.63247 1.80107 7.04829C2.11269 7.46412 2.28173 7.97465 2.28173 8.5C2.28173 9.02535 2.11269 9.53588 1.80107 9.9517C1.48944 10.3675 1.05281 10.6652 0.5595 10.7981C0.399344 10.8414 0.257609 10.9381 0.156401 11.0732C0.0551918 11.2082 0.000199434 11.3739 0 11.5445L0 14.6818ZM7.443 13.0467L14.943 5.31945C15.1104 5.13674 15.2021 4.89401 15.1986 4.64279C15.1952 4.39156 15.0968 4.15161 14.9245 3.97385C14.7522 3.79609 14.5194 3.69451 14.2756 3.69067C14.0317 3.68683 13.796 3.78102 13.6185 3.95327L6.1185 11.6805C6.02718 11.7691 5.95405 11.8757 5.90343 11.994C5.85281 12.1122 5.82575 12.2397 5.82383 12.369C5.82191 12.4982 5.84518 12.6265 5.89226 12.7463C5.93934 12.8661 6.00928 12.9749 6.09793 13.0664C6.18658 13.1578 6.29213 13.23 6.40835 13.2786C6.52456 13.3273 6.64907 13.3514 6.77449 13.3496C6.89992 13.3477 7.02371 13.32 7.13854 13.268C7.25337 13.2159 7.3569 13.1407 7.443 13.0467ZM6.0315 5.40909C6.0315 4.99921 6.18954 4.60612 6.47084 4.31629C6.75214 4.02646 7.13367 3.86364 7.5315 3.86364C7.92932 3.86364 8.31085 4.02646 8.59216 4.31629C8.87346 4.60612 9.0315 4.99921 9.0315 5.40909C9.0315 5.81897 8.87346 6.21206 8.59216 6.50189C8.31085 6.79172 7.92932 6.95455 7.5315 6.95455C7.13367 6.95455 6.75214 6.79172 6.47084 6.50189C6.18954 6.21206 6.0315 5.81897 6.0315 5.40909ZM12.0315 11.5909C12.0315 11.181 12.1895 10.7879 12.4708 10.4981C12.7521 10.2083 13.1337 10.0455 13.5315 10.0455C13.9293 10.0455 14.3109 10.2083 14.5922 10.4981C14.8735 10.7879 15.0315 11.181 15.0315 11.5909C15.0315 12.0008 14.8735 12.3939 14.5922 12.6837C14.3109 12.9735 13.9293 13.1364 13.5315 13.1364C13.1337 13.1364 12.7521 12.9735 12.4708 12.6837C12.1895 12.3939 12.0315 12.0008 12.0315 11.5909Z" fill="#0007B0"/>
</svg>
