<svg width="16" height="20" viewBox="0 0 16 20" fill="none" xmlns="http://www.w3.org/2000/svg">
<path d="M8 6.44488C8.23575 6.44488 8.46184 6.53853 8.62854 6.70523C8.79524 6.87193 8.88889 7.09802 8.88889 7.33377C8.88889 7.56952 8.79524 7.79561 8.62854 7.96231C8.46184 8.12901 8.23575 8.22266 8 8.22266C7.76425 8.22266 7.53816 8.12901 7.37146 7.96231C7.20476 7.79561 7.11111 7.56952 7.11111 7.33377C7.11111 7.09802 7.20476 6.87193 7.37146 6.70523C7.53816 6.53853 7.76425 6.44488 8 6.44488ZM16 9.11155C16 14.0449 12.5867 18.6582 8 19.7782C3.41333 18.6582 0 14.0449 0 9.11155V3.77821L8 0.222656L16 3.77821V9.11155ZM8 4.6671C7.29276 4.6671 6.61448 4.94805 6.11438 5.44815C5.61428 5.94825 5.33333 6.62652 5.33333 7.33377C5.33333 8.49821 6.07111 9.48488 7.11111 9.84932V15.3338H8.88889V13.556H10.6667V11.7782H8.88889V9.84932C9.92889 9.48488 10.6667 8.49821 10.6667 7.33377C10.6667 6.62652 10.3857 5.94825 9.88562 5.44815C9.38552 4.94805 8.70724 4.6671 8 4.6671Z" fill="#0B1739"/>
</svg>
